M48
;DRILL file {KiCad 4.0.0-rc1-stable} date 2016/05/03 6:10:06
;FORMAT={-:-/ absolute / metric / decimal}
FMAT,2
METRIC,TZ
T1C0.400
T2C0.900
T3C1.000
T4C1.016
%
G90
G05
M71
T1
X2.Y43.
X2.Y38.
X2.Y33.
X2.Y28.
X2.Y23.
X2.Y18.
X2.Y13.
X2.Y9.
X3.8Y17.2
X4.Y19.
X4.Y8.
X5.Y21.
X7.Y48.
X7.Y43.
X7.Y8.
X8.Y16.
X10.Y22.
X10.Y5.
X10.6Y18.
X12.Y48.
X13.Y14.8
X15.Y5.
X16.8Y10.8
X17.Y48.
X18.321Y18.736
X18.411Y36.129
X19.8Y10.8
X20.Y28.
X20.Y5.
X22.2Y12.2
X23.Y28.
X25.Y5.
X26.Y28.
X26.2Y11.8
X27.322Y11.912
X29.Y28.
X30.Y5.
X32.Y14.4
X32.842Y28.558
X32.842Y19.442
X33.054Y16.216
X34.Y48.
X34.Y43.
X35.Y5.
X39.Y48.
X39.Y43.
X39.2Y21.2
X40.Y10.
X40.Y5.
X41.4Y20.4
X41.4Y15.4
X42.4Y15.4
X42.6Y24.6
X43.8Y24.2
X43.812Y29.047
X45.Y10.
X46.Y17.
X46.Y11.8
T2
X21.19Y47.32
X21.19Y44.78
X21.19Y42.24
X21.19Y39.7
X21.19Y37.16
X21.19Y34.62
X21.19Y32.08
X21.19Y24.46
X21.19Y21.92
X21.19Y19.38
X21.19Y16.84
X21.19Y14.3
X28.81Y47.32
X28.81Y44.78
X28.81Y42.24
X28.81Y39.7
X28.81Y37.16
X28.81Y34.62
X28.81Y32.08
X28.81Y24.46
X28.81Y21.92
X28.81Y19.38
X28.81Y16.84
X28.81Y14.3
T3
X12.935Y39.7
X12.935Y37.16
X12.935Y34.62
X12.935Y32.08
X12.935Y29.54
X12.935Y27.
X12.935Y24.46
X12.935Y21.92
X12.935Y19.38
X12.935Y16.84
X15.475Y39.7
X15.475Y37.16
X15.475Y34.62
X15.475Y32.08
X15.475Y29.54
X15.475Y27.
X15.475Y24.46
X15.475Y21.92
X15.475Y19.38
X15.475Y16.84
X21.19Y9.22
X23.73Y9.22
X26.27Y9.22
X28.81Y9.22
X34.525Y39.7
X34.525Y37.16
X34.525Y34.62
X34.525Y32.08
X34.525Y29.54
X34.525Y27.
X34.525Y24.46
X34.525Y21.92
X34.525Y19.38
X34.525Y16.84
X34.525Y14.3
X34.525Y11.76
X37.065Y39.7
X37.065Y37.16
X37.065Y34.62
X37.065Y32.08
X37.065Y29.54
X37.065Y27.
X37.065Y24.46
X37.065Y21.92
X37.065Y19.38
X37.065Y16.84
X37.065Y14.3
X37.065Y11.76
T4
X4.46Y11.
X7.Y11.
T0
M30
