G04 #@! TF.FileFunction,Soldermask,Top*
%FSLAX46Y46*%
G04 Gerber Fmt 4.6, Leading zero omitted, Abs format (unit mm)*
G04 Created by KiCad (PCBNEW 4.0.0-rc1-stable) date 2016/05/03 6:10:00*
%MOMM*%
G01*
G04 APERTURE LIST*
%ADD10C,0.100000*%
%ADD11C,2.000000*%
%ADD12C,3.600000*%
%ADD13R,1.598880X1.598880*%
%ADD14R,1.300000X1.600000*%
%ADD15R,1.600000X1.300000*%
%ADD16R,1.050000X1.450000*%
%ADD17R,2.432000X2.432000*%
%ADD18O,2.432000X2.432000*%
G04 APERTURE END LIST*
D10*
D11*
X34525000Y27000000D03*
X15475000Y27000000D03*
X37065000Y27000000D03*
X34525000Y24460000D03*
X34525000Y21920000D03*
X34525000Y19380000D03*
X34525000Y16840000D03*
X34525000Y14300000D03*
X37065000Y14300000D03*
X37065000Y16840000D03*
X37065000Y19380000D03*
X37065000Y21920000D03*
X37065000Y24460000D03*
X34525000Y11760000D03*
X37065000Y11760000D03*
X34525000Y29540000D03*
X34525000Y32080000D03*
X34525000Y34620000D03*
X34525000Y37160000D03*
X34525000Y39700000D03*
X37065000Y39700000D03*
X37065000Y37160000D03*
X37065000Y34620000D03*
X37065000Y32080000D03*
X37065000Y29540000D03*
X15475000Y24460000D03*
X15475000Y21920000D03*
X15475000Y19380000D03*
X15475000Y16840000D03*
X12935000Y16840000D03*
X12935000Y19380000D03*
X12935000Y21920000D03*
X12935000Y24460000D03*
X12935000Y27000000D03*
X12935000Y29540000D03*
X15475000Y29540000D03*
X15475000Y32080000D03*
X15475000Y34620000D03*
X15475000Y37160000D03*
X15475000Y39700000D03*
X12935000Y39700000D03*
X12935000Y37160000D03*
X12935000Y34620000D03*
X12935000Y32080000D03*
X23730000Y9220000D03*
X26270000Y9220000D03*
X28810000Y9220000D03*
X21190000Y9220000D03*
D12*
X46000000Y46000000D03*
X4000000Y46000000D03*
X4000000Y4000000D03*
D13*
X43950980Y20000000D03*
X46049020Y20000000D03*
X43950980Y15000000D03*
X46049020Y15000000D03*
D14*
X32000000Y30900000D03*
X32000000Y33100000D03*
X32000000Y35900000D03*
X32000000Y38100000D03*
D15*
X46100000Y18000000D03*
X43900000Y18000000D03*
X46100000Y13000000D03*
X43900000Y13000000D03*
D16*
X46075000Y30075000D03*
X46075000Y25925000D03*
X43925000Y30075000D03*
X43925000Y25925000D03*
D12*
X46000000Y4000000D03*
D17*
X4460000Y11000000D03*
D18*
X7000000Y11000000D03*
D11*
X21190000Y24460000D03*
X21190000Y21920000D03*
X21190000Y19380000D03*
X21190000Y16840000D03*
X21190000Y14300000D03*
X28810000Y14300000D03*
X28810000Y16840000D03*
X28810000Y19380000D03*
X28810000Y21920000D03*
X28810000Y24460000D03*
X21190000Y47320000D03*
X21190000Y44780000D03*
X21190000Y42240000D03*
X21190000Y39700000D03*
X21190000Y37160000D03*
X21190000Y34620000D03*
X21190000Y32080000D03*
X28810000Y32080000D03*
X28810000Y34620000D03*
X28810000Y37160000D03*
X28810000Y39700000D03*
X28810000Y42240000D03*
X28810000Y44780000D03*
X28810000Y47320000D03*
M02*
