G04 #@! TF.FileFunction,Copper,L2,Bot,Signal*
%FSLAX46Y46*%
G04 Gerber Fmt 4.6, Leading zero omitted, Abs format (unit mm)*
G04 Created by KiCad (PCBNEW 4.0.0-rc1-stable) date 2016/05/03 6:10:00*
%MOMM*%
G01*
G04 APERTURE LIST*
%ADD10C,0.100000*%
%ADD11C,1.600000*%
%ADD12R,0.750000X1.200000*%
%ADD13R,1.200000X0.750000*%
%ADD14R,0.900000X1.200000*%
%ADD15R,1.060000X0.650000*%
%ADD16R,2.032000X2.032000*%
%ADD17O,2.032000X2.032000*%
%ADD18C,0.600000*%
%ADD19C,0.500000*%
%ADD20C,0.300000*%
%ADD21C,1.000000*%
%ADD22C,0.200000*%
%ADD23C,0.250000*%
G04 APERTURE END LIST*
D10*
D11*
X34525000Y27000000D03*
X15475000Y27000000D03*
X37065000Y27000000D03*
X34525000Y24460000D03*
X34525000Y21920000D03*
X34525000Y19380000D03*
X34525000Y16840000D03*
X34525000Y14300000D03*
X37065000Y14300000D03*
X37065000Y16840000D03*
X37065000Y19380000D03*
X37065000Y21920000D03*
X37065000Y24460000D03*
X34525000Y11760000D03*
X37065000Y11760000D03*
X34525000Y29540000D03*
X34525000Y32080000D03*
X34525000Y34620000D03*
X34525000Y37160000D03*
X34525000Y39700000D03*
X37065000Y39700000D03*
X37065000Y37160000D03*
X37065000Y34620000D03*
X37065000Y32080000D03*
X37065000Y29540000D03*
X15475000Y24460000D03*
X15475000Y21920000D03*
X15475000Y19380000D03*
X15475000Y16840000D03*
X12935000Y16840000D03*
X12935000Y19380000D03*
X12935000Y21920000D03*
X12935000Y24460000D03*
X12935000Y27000000D03*
X12935000Y29540000D03*
X15475000Y29540000D03*
X15475000Y32080000D03*
X15475000Y34620000D03*
X15475000Y37160000D03*
X15475000Y39700000D03*
X12935000Y39700000D03*
X12935000Y37160000D03*
X12935000Y34620000D03*
X12935000Y32080000D03*
X23730000Y9220000D03*
X26270000Y9220000D03*
X28810000Y9220000D03*
X21190000Y9220000D03*
D12*
X3000000Y15050000D03*
X3000000Y16950000D03*
X3000000Y20950000D03*
X3000000Y19050000D03*
X11000000Y21950000D03*
X11000000Y20050000D03*
D13*
X6950000Y22000000D03*
X5050000Y22000000D03*
D14*
X9000000Y22100000D03*
X9000000Y19900000D03*
X9000000Y18100000D03*
X9000000Y15900000D03*
X40000000Y16900000D03*
X40000000Y19100000D03*
D15*
X4900000Y18050000D03*
X4900000Y19000000D03*
X4900000Y19950000D03*
X7100000Y19950000D03*
X7100000Y18050000D03*
X7100000Y19000000D03*
D16*
X4460000Y11000000D03*
D17*
X7000000Y11000000D03*
D11*
X21190000Y24460000D03*
X21190000Y21920000D03*
X21190000Y19380000D03*
X21190000Y16840000D03*
X21190000Y14300000D03*
X28810000Y14300000D03*
X28810000Y16840000D03*
X28810000Y19380000D03*
X28810000Y21920000D03*
X28810000Y24460000D03*
X21190000Y47320000D03*
X21190000Y44780000D03*
X21190000Y42240000D03*
X21190000Y39700000D03*
X21190000Y37160000D03*
X21190000Y34620000D03*
X21190000Y32080000D03*
X28810000Y32080000D03*
X28810000Y34620000D03*
X28810000Y37160000D03*
X28810000Y39700000D03*
X28810000Y42240000D03*
X28810000Y44780000D03*
X28810000Y47320000D03*
D18*
X32842000Y28557900D03*
X32842000Y19442100D03*
X32000000Y14400000D03*
X13000000Y14800000D03*
X16800000Y10800000D03*
X19800000Y10800000D03*
X22200000Y12200000D03*
X42600000Y24600000D03*
X39200000Y21200000D03*
X41400000Y20400000D03*
X42400000Y15400000D03*
X41400000Y15400000D03*
X29000000Y28000000D03*
X26000000Y28000000D03*
X23000000Y28000000D03*
X20000000Y28000000D03*
X34000000Y43000000D03*
X39000000Y43000000D03*
X39000000Y48000000D03*
X34000000Y48000000D03*
X17000000Y48000000D03*
X12000000Y48000000D03*
X7000000Y48000000D03*
X7000000Y43000000D03*
X2000000Y43000000D03*
X2000000Y38000000D03*
X2000000Y33000000D03*
X2000000Y28000000D03*
X2000000Y23000000D03*
X2000000Y18000000D03*
X2000000Y13000000D03*
X2000000Y9000000D03*
X4000000Y8000000D03*
X7000000Y8000000D03*
X45000000Y10000000D03*
X40000000Y10000000D03*
X40000000Y5000000D03*
X35000000Y5000000D03*
X30000000Y5000000D03*
X25000000Y5000000D03*
X20000000Y5000000D03*
X15000000Y5000000D03*
X10000000Y5000000D03*
X5000000Y21000000D03*
X3800000Y17200000D03*
X4000000Y19000000D03*
X8000000Y16000000D03*
X10600000Y18000000D03*
X10000000Y22000000D03*
X43800000Y24200000D03*
X43812000Y29046900D03*
X46000000Y17000000D03*
X46000000Y11800000D03*
X18321000Y18735700D03*
X27322000Y11912200D03*
X26200000Y11800000D03*
X18410900Y36128900D03*
X33054000Y16215600D03*
D19*
X32842000Y19442100D02*
X32842000Y28557900D01*
X32000000Y9600000D02*
X32000000Y14400000D01*
X29400000Y7000000D02*
X32000000Y9600000D01*
X15890000Y7000000D02*
X29400000Y7000000D01*
X7100000Y15790000D02*
X15890000Y7000000D01*
X7100000Y18050000D02*
X7100000Y15790000D01*
X3000000Y12460000D02*
X4460000Y11000000D01*
X3000000Y15050000D02*
X3000000Y12460000D01*
X3000000Y15050000D02*
X3000000Y15275000D01*
X4900000Y18050000D02*
X7100000Y18050000D01*
X4900000Y16950000D02*
X4900000Y18050000D01*
X3000000Y15050000D02*
X4900000Y16950000D01*
D20*
X16800000Y10800000D02*
X13000000Y14600000D01*
X13000000Y14600000D02*
X13000000Y14800000D01*
X22200000Y12200000D02*
X21200000Y12200000D01*
X21200000Y12200000D02*
X19800000Y10800000D01*
X39200000Y21200000D02*
X42600000Y24600000D01*
X41400000Y15400000D02*
X42400000Y15400000D01*
X23000000Y28000000D02*
X26000000Y28000000D01*
X21190000Y24460000D02*
X21190000Y26810000D01*
X21190000Y26810000D02*
X20000000Y28000000D01*
X39000000Y48000000D02*
X39000000Y43000000D01*
X28810000Y47320000D02*
X33320000Y47320000D01*
X33320000Y47320000D02*
X34000000Y48000000D01*
X12000000Y48000000D02*
X17000000Y48000000D01*
X7000000Y43000000D02*
X7000000Y48000000D01*
X2000000Y38000000D02*
X2000000Y43000000D01*
X7000000Y8000000D02*
X10000000Y5000000D01*
X15000000Y5000000D02*
X20000000Y5000000D01*
X25000000Y5000000D02*
X30000000Y5000000D01*
X35000000Y5000000D02*
X40000000Y5000000D01*
X40000000Y10000000D02*
X45000000Y10000000D01*
D19*
X2000000Y28000000D02*
X2000000Y33000000D01*
X2000000Y18000000D02*
X2000000Y23000000D01*
D20*
X2000000Y9000000D02*
X2000000Y13000000D01*
X7000000Y8000000D02*
X4000000Y8000000D01*
X7000000Y11000000D02*
X7000000Y8000000D01*
D19*
X5050000Y21050000D02*
X5000000Y21000000D01*
X5050000Y22000000D02*
X5050000Y21050000D01*
X3550000Y16950000D02*
X3800000Y17200000D01*
X3000000Y16950000D02*
X3550000Y16950000D01*
X4900000Y19000000D02*
X4000000Y19000000D01*
X3950000Y19050000D02*
X4000000Y19000000D01*
X3000000Y19050000D02*
X3950000Y19050000D01*
X8100000Y15900000D02*
X8000000Y16000000D01*
X9000000Y15900000D02*
X8100000Y15900000D01*
X3875000Y20950000D02*
X3000000Y20950000D01*
X4650000Y20175000D02*
X3875000Y20950000D01*
X4650000Y19950000D02*
X4650000Y20175000D01*
X4900000Y19950000D02*
X4650000Y19950000D01*
D21*
X21190000Y9220000D02*
X22692999Y10722999D01*
X22692999Y10722999D02*
X27595000Y10723000D01*
X27595000Y10723000D02*
X27598000Y10720000D01*
X27598000Y10720000D02*
X30600000Y13722000D01*
X30600000Y13722000D02*
X30600000Y15503200D01*
D20*
X38753000Y15503200D02*
X30600000Y15503200D01*
X40000000Y16750000D02*
X38753000Y15503200D01*
X40000000Y16900000D02*
X40000000Y16750000D01*
D21*
X21190000Y44780000D02*
X21190000Y47320000D01*
X12780000Y44780000D02*
X21190000Y44780000D01*
X10000000Y42000000D02*
X12780000Y44780000D01*
X10000000Y24700000D02*
X10000000Y42000000D01*
X9000000Y23700000D02*
X10000000Y24700000D01*
X9000000Y22100000D02*
X9000000Y23700000D01*
X28810000Y21920000D02*
X28810000Y24460000D01*
X16180000Y9220000D02*
X21190000Y9220000D01*
X10600000Y14800000D02*
X16180000Y9220000D01*
X10600000Y18000000D02*
X10600000Y14800000D01*
D22*
X10375000Y22000000D02*
X10000000Y22000000D01*
X10425000Y21950000D02*
X10375000Y22000000D01*
X11000000Y21950000D02*
X10425000Y21950000D01*
D21*
X30600000Y20130000D02*
X28810000Y21920000D01*
X30600000Y15503200D02*
X30600000Y20130000D01*
D19*
X8130000Y18970000D02*
X9000000Y18100000D01*
X8130000Y19000000D02*
X8130000Y18970000D01*
X8130000Y19030000D02*
X9000000Y19900000D01*
X8130000Y19000000D02*
X8130000Y19030000D01*
X7100000Y19000000D02*
X8130000Y19000000D01*
X9150000Y20050000D02*
X9000000Y19900000D01*
X11000000Y20050000D02*
X9150000Y20050000D01*
D20*
X37345000Y19100000D02*
X37065000Y19380000D01*
X40000000Y19100000D02*
X37345000Y19100000D01*
X40000000Y20400000D02*
X43800000Y24200000D01*
X40000000Y19100000D02*
X40000000Y20400000D01*
X43800000Y29035000D02*
X43812000Y29046900D01*
X43800000Y24200000D02*
X43800000Y29035000D01*
X43300000Y14300000D02*
X46000000Y17000000D01*
X37065000Y14300000D02*
X43300000Y14300000D01*
X34525000Y14300000D02*
X35675001Y13149999D01*
X35675001Y13149999D02*
X44650000Y13150000D01*
X44650000Y13150000D02*
X46000000Y11800000D01*
X16119000Y18735700D02*
X18321000Y18735700D01*
X15475000Y19380000D02*
X16119000Y18735700D01*
X27322000Y13248100D02*
X21190000Y19380000D01*
X27322000Y11912200D02*
X27322000Y13248100D01*
X14303000Y25827900D02*
X15475000Y27000000D01*
X14303000Y23928200D02*
X14303000Y25827900D01*
X15161000Y23070400D02*
X14303000Y23928200D01*
X15952000Y23070400D02*
X15161000Y23070400D01*
X19642000Y19380000D02*
X15952000Y23070400D01*
X21190000Y19380000D02*
X19642000Y19380000D01*
X21190000Y16840000D02*
X26200000Y11830000D01*
X26200000Y11830000D02*
X26200000Y11800000D01*
X16110000Y21920000D02*
X21190000Y16840000D01*
X15475000Y21920000D02*
X16110000Y21920000D01*
X18015000Y14300000D02*
X15475000Y16840000D01*
X21190000Y14300000D02*
X18015000Y14300000D01*
X19305000Y20630400D02*
X15475000Y24460000D01*
X22480000Y20630400D02*
X19305000Y20630400D01*
X28810000Y14300000D02*
X22480000Y20630400D01*
X14325000Y28150400D02*
X12935000Y29540000D01*
X15973000Y28150400D02*
X14325000Y28150400D01*
X17076000Y27046900D02*
X15973000Y28150400D01*
X17076000Y26792100D02*
X17076000Y27046900D01*
X20678000Y23190000D02*
X17076000Y26792100D01*
X22460000Y23190000D02*
X20678000Y23190000D01*
X28810000Y16840000D02*
X22460000Y23190000D01*
X14664600Y29540000D02*
X15475000Y29540000D01*
X13275000Y30929600D02*
X14664600Y29540000D01*
X12398800Y30929600D02*
X13275000Y30929600D01*
X11748300Y31580100D02*
X12398800Y30929600D01*
X11748300Y37717900D02*
X11748300Y31580100D01*
X12375900Y38345500D02*
X11748300Y37717900D01*
X16194300Y38345500D02*
X12375900Y38345500D01*
X18410900Y36128900D02*
X16194300Y38345500D01*
X17457000Y40892800D02*
X21190000Y37160000D01*
X14128000Y40892800D02*
X17457000Y40892800D01*
X12935000Y39700000D02*
X14128000Y40892800D01*
X16110000Y39700000D02*
X15475000Y39700000D01*
X21190000Y34620000D02*
X16110000Y39700000D01*
X14284000Y35810600D02*
X12935000Y37160000D01*
X17459000Y35810600D02*
X14284000Y35810600D01*
X21190000Y32080000D02*
X17459000Y35810600D01*
X32041700Y17227900D02*
X32041700Y22417187D01*
X31000000Y23458887D02*
X32041700Y22417187D01*
X31000000Y31740002D02*
X31000000Y23458887D01*
X28810000Y34620000D02*
X28810000Y33930002D01*
X28810000Y33930002D02*
X31000000Y31740002D01*
X33054000Y16215600D02*
X32041700Y17227900D01*
X14205000Y30810000D02*
X12935000Y32080000D01*
X17101100Y30810000D02*
X14205000Y30810000D01*
X18150100Y29761000D02*
X17101100Y30810000D01*
X22057200Y29761000D02*
X18150100Y29761000D01*
X28810000Y36513800D02*
X22057200Y29761000D01*
X28810000Y37160000D02*
X28810000Y36513800D01*
X35696300Y18011300D02*
X34525000Y16840000D01*
X35696300Y29999500D02*
X35696300Y18011300D01*
X35005400Y30690400D02*
X35696300Y29999500D01*
X34215700Y30690400D02*
X35005400Y30690400D01*
X33242100Y31664000D02*
X34215700Y30690400D01*
X33242100Y35267900D02*
X33242100Y31664000D01*
X28810000Y39700000D02*
X33242100Y35267900D01*
X14205000Y33350000D02*
X12935000Y34620000D01*
X16037300Y33350000D02*
X14205000Y33350000D01*
X19112700Y30274600D02*
X16037300Y33350000D01*
X21863100Y30274600D02*
X19112700Y30274600D01*
X23876500Y32288000D02*
X21863100Y30274600D01*
X23876500Y37306500D02*
X23876500Y32288000D01*
X28810000Y42240000D02*
X23876500Y37306500D01*
X19268500Y30826500D02*
X15475000Y34620000D01*
X21707300Y30826500D02*
X19268500Y30826500D01*
X22479600Y31598800D02*
X21707300Y30826500D01*
X22479600Y38449600D02*
X22479600Y31598800D01*
X28810000Y44780000D02*
X22479600Y38449600D01*
D23*
G36*
X3911612Y19311612D02*
X3952963Y19284187D01*
X4000000Y19275000D01*
X4217993Y19275000D01*
X4221246Y19272777D01*
X4370000Y19242654D01*
X5430000Y19242654D01*
X5475000Y19251121D01*
X5475000Y18748233D01*
X5430000Y18757346D01*
X4370000Y18757346D01*
X4231034Y18731198D01*
X4221402Y18725000D01*
X4200000Y18725000D01*
X4151368Y18715152D01*
X4110399Y18687159D01*
X4083549Y18645432D01*
X4076948Y18610354D01*
X4017777Y18523754D01*
X3987654Y18375000D01*
X3987654Y17725000D01*
X4013802Y17586034D01*
X4075000Y17490929D01*
X4075000Y17008884D01*
X3391116Y16325000D01*
X2525000Y16325000D01*
X2525000Y19675000D01*
X3548224Y19675000D01*
X3911612Y19311612D01*
X3911612Y19311612D01*
G37*
X3911612Y19311612D02*
X3952963Y19284187D01*
X4000000Y19275000D01*
X4217993Y19275000D01*
X4221246Y19272777D01*
X4370000Y19242654D01*
X5430000Y19242654D01*
X5475000Y19251121D01*
X5475000Y18748233D01*
X5430000Y18757346D01*
X4370000Y18757346D01*
X4231034Y18731198D01*
X4221402Y18725000D01*
X4200000Y18725000D01*
X4151368Y18715152D01*
X4110399Y18687159D01*
X4083549Y18645432D01*
X4076948Y18610354D01*
X4017777Y18523754D01*
X3987654Y18375000D01*
X3987654Y17725000D01*
X4013802Y17586034D01*
X4075000Y17490929D01*
X4075000Y17008884D01*
X3391116Y16325000D01*
X2525000Y16325000D01*
X2525000Y19675000D01*
X3548224Y19675000D01*
X3911612Y19311612D01*
G36*
X11275000Y21325000D02*
X10251776Y21325000D01*
X10088388Y21488388D01*
X10047037Y21515813D01*
X10000000Y21525000D01*
X8000000Y21525000D01*
X7951368Y21515152D01*
X7911612Y21488388D01*
X7511612Y21088388D01*
X7484187Y21047037D01*
X7475000Y21000000D01*
X7475000Y19725000D01*
X6525000Y19725000D01*
X6525000Y22548224D01*
X6651776Y22675000D01*
X11275000Y22675000D01*
X11275000Y21325000D01*
X11275000Y21325000D01*
G37*
X11275000Y21325000D02*
X10251776Y21325000D01*
X10088388Y21488388D01*
X10047037Y21515813D01*
X10000000Y21525000D01*
X8000000Y21525000D01*
X7951368Y21515152D01*
X7911612Y21488388D01*
X7511612Y21088388D01*
X7484187Y21047037D01*
X7475000Y21000000D01*
X7475000Y19725000D01*
X6525000Y19725000D01*
X6525000Y22548224D01*
X6651776Y22675000D01*
X11275000Y22675000D01*
X11275000Y21325000D01*
G36*
X49550000Y450000D02*
X450000Y450000D01*
X450000Y3608872D01*
X2024657Y3608872D01*
X2324700Y2882714D01*
X2879791Y2326652D01*
X3605425Y2025343D01*
X4391128Y2024657D01*
X5117286Y2324700D01*
X5673348Y2879791D01*
X5974657Y3605425D01*
X5974660Y3608872D01*
X44024657Y3608872D01*
X44324700Y2882714D01*
X44879791Y2326652D01*
X45605425Y2025343D01*
X46391128Y2024657D01*
X47117286Y2324700D01*
X47673348Y2879791D01*
X47974657Y3605425D01*
X47975343Y4391128D01*
X47675300Y5117286D01*
X47120209Y5673348D01*
X46394575Y5974657D01*
X45608872Y5975343D01*
X44882714Y5675300D01*
X44326652Y5120209D01*
X44025343Y4394575D01*
X44024657Y3608872D01*
X5974660Y3608872D01*
X5975343Y4391128D01*
X5675300Y5117286D01*
X5120209Y5673348D01*
X4394575Y5974657D01*
X3608872Y5975343D01*
X2882714Y5675300D01*
X2326652Y5120209D01*
X2025343Y4394575D01*
X2024657Y3608872D01*
X450000Y3608872D01*
X450000Y21550000D01*
X2242654Y21550000D01*
X2242654Y20350000D01*
X2268802Y20211034D01*
X2350931Y20083401D01*
X2476246Y19997777D01*
X2625000Y19967654D01*
X3375000Y19967654D01*
X3513966Y19993802D01*
X3641599Y20075931D01*
X3727223Y20201246D01*
X3729353Y20211764D01*
X3987654Y19953463D01*
X3987654Y19625000D01*
X3995969Y19580807D01*
X3688388Y19888388D01*
X3648632Y19915152D01*
X3600000Y19925000D01*
X2400000Y19925000D01*
X2354568Y19916451D01*
X2312841Y19889601D01*
X2284848Y19848632D01*
X2275000Y19800000D01*
X2275000Y16200000D01*
X2283549Y16154568D01*
X2310399Y16112841D01*
X2351368Y16084848D01*
X2400000Y16075000D01*
X3141116Y16075000D01*
X3098462Y16032346D01*
X2625000Y16032346D01*
X2486034Y16006198D01*
X2358401Y15924069D01*
X2272777Y15798754D01*
X2242654Y15650000D01*
X2242654Y14450000D01*
X2268802Y14311034D01*
X2350931Y14183401D01*
X2375000Y14166955D01*
X2375000Y12460000D01*
X2422575Y12220823D01*
X2558058Y12018058D01*
X3061654Y11514462D01*
X3061654Y9984000D01*
X3087802Y9845034D01*
X3169931Y9717401D01*
X3295246Y9631777D01*
X3444000Y9601654D01*
X5476000Y9601654D01*
X5614966Y9627802D01*
X5742599Y9709931D01*
X5828223Y9835246D01*
X5858346Y9984000D01*
X5858346Y12016000D01*
X5832198Y12154966D01*
X5750069Y12282599D01*
X5624754Y12368223D01*
X5476000Y12398346D01*
X3945538Y12398346D01*
X3625000Y12718884D01*
X3625000Y14165250D01*
X3641599Y14175931D01*
X3727223Y14301246D01*
X3757346Y14450000D01*
X3757346Y14923462D01*
X5341942Y16508058D01*
X5477425Y16710823D01*
X5525001Y16950000D01*
X5525000Y16950005D01*
X5525000Y17360529D01*
X5568966Y17368802D01*
X5656301Y17425000D01*
X6344815Y17425000D01*
X6421246Y17372777D01*
X6475000Y17361892D01*
X6475000Y15790000D01*
X6522575Y15550823D01*
X6658058Y15348058D01*
X15448058Y6558058D01*
X15650822Y6422575D01*
X15890000Y6375000D01*
X29400000Y6375000D01*
X29639177Y6422575D01*
X29841942Y6558058D01*
X32441942Y9158058D01*
X32577425Y9360822D01*
X32625000Y9600000D01*
X32625000Y11527303D01*
X33349796Y11527303D01*
X33528302Y11095285D01*
X33858547Y10764464D01*
X34290253Y10585204D01*
X34757697Y10584796D01*
X35189715Y10763302D01*
X35520536Y11093547D01*
X35699796Y11525253D01*
X35700204Y11992697D01*
X35521698Y12424715D01*
X35191453Y12755536D01*
X34759747Y12934796D01*
X34292303Y12935204D01*
X33860285Y12756698D01*
X33529464Y12426453D01*
X33350204Y11994747D01*
X33349796Y11527303D01*
X32625000Y11527303D01*
X32625000Y14145015D01*
X32674883Y14265145D01*
X32675117Y14533677D01*
X32572571Y14781857D01*
X32382856Y14971903D01*
X32367691Y14978200D01*
X33541231Y14978200D01*
X33529464Y14966453D01*
X33350204Y14534747D01*
X33349796Y14067303D01*
X33528302Y13635285D01*
X33858547Y13304464D01*
X34290253Y13125204D01*
X34757697Y13124796D01*
X34899253Y13183285D01*
X35303770Y12778768D01*
X35474092Y12664962D01*
X35675001Y12624999D01*
X44432538Y12625000D01*
X45324941Y11732597D01*
X45324883Y11666323D01*
X45427429Y11418143D01*
X45617144Y11228097D01*
X45865145Y11125117D01*
X46133677Y11124883D01*
X46381857Y11227429D01*
X46571903Y11417144D01*
X46596352Y11476023D01*
X46601727Y11475012D01*
X46650218Y11485531D01*
X46690796Y11514087D01*
X46717068Y11556181D01*
X46725000Y11600000D01*
X46725000Y17000000D01*
X46715152Y17048632D01*
X46687159Y17089601D01*
X46675085Y17097370D01*
X46675117Y17133677D01*
X46572571Y17381857D01*
X46382856Y17571903D01*
X46134855Y17674883D01*
X45866323Y17675117D01*
X45618143Y17572571D01*
X45428097Y17382856D01*
X45325117Y17134855D01*
X45325058Y17067520D01*
X43182538Y14925000D01*
X40925000Y14925000D01*
X40925000Y20582538D01*
X43867403Y23524941D01*
X43933677Y23524883D01*
X44181857Y23627429D01*
X44371903Y23817144D01*
X44474883Y24065145D01*
X44475117Y24333677D01*
X44372571Y24581857D01*
X44325000Y24629511D01*
X44325000Y28605244D01*
X44383903Y28664044D01*
X44486883Y28912045D01*
X44487117Y29180577D01*
X44384571Y29428757D01*
X44194856Y29618803D01*
X43946855Y29721783D01*
X43678323Y29722017D01*
X43430143Y29619471D01*
X43240097Y29429756D01*
X43137117Y29181755D01*
X43136883Y28913223D01*
X43239429Y28665043D01*
X43275000Y28629410D01*
X43275000Y24629677D01*
X43228097Y24582856D01*
X43125117Y24334855D01*
X43125058Y24267520D01*
X39628769Y20771231D01*
X39597878Y20725000D01*
X38325000Y20725000D01*
X38325000Y30400000D01*
X38315152Y30448632D01*
X38287159Y30489601D01*
X38245432Y30516451D01*
X38200000Y30525000D01*
X37741971Y30525000D01*
X37731453Y30535536D01*
X37299747Y30714796D01*
X36832303Y30715204D01*
X36400285Y30536698D01*
X36388567Y30525000D01*
X36000000Y30525000D01*
X35951368Y30515152D01*
X35934580Y30503682D01*
X35376631Y31061631D01*
X35251657Y31145136D01*
X35520536Y31413547D01*
X35699796Y31845253D01*
X35699797Y31847303D01*
X35889796Y31847303D01*
X36068302Y31415285D01*
X36398547Y31084464D01*
X36830253Y30905204D01*
X37297697Y30904796D01*
X37729715Y31083302D01*
X38060536Y31413547D01*
X38239796Y31845253D01*
X38240204Y32312697D01*
X38061698Y32744715D01*
X37731453Y33075536D01*
X37299747Y33254796D01*
X36832303Y33255204D01*
X36400285Y33076698D01*
X36069464Y32746453D01*
X35890204Y32314747D01*
X35889796Y31847303D01*
X35699797Y31847303D01*
X35700204Y32312697D01*
X35521698Y32744715D01*
X35191453Y33075536D01*
X34759747Y33254796D01*
X34292303Y33255204D01*
X33860285Y33076698D01*
X33767100Y32983675D01*
X33767100Y33716070D01*
X33858547Y33624464D01*
X34290253Y33445204D01*
X34757697Y33444796D01*
X35189715Y33623302D01*
X35520536Y33953547D01*
X35699796Y34385253D01*
X35699797Y34387303D01*
X35889796Y34387303D01*
X36068302Y33955285D01*
X36398547Y33624464D01*
X36830253Y33445204D01*
X37297697Y33444796D01*
X37729715Y33623302D01*
X38060536Y33953547D01*
X38239796Y34385253D01*
X38240204Y34852697D01*
X38061698Y35284715D01*
X37731453Y35615536D01*
X37299747Y35794796D01*
X36832303Y35795204D01*
X36400285Y35616698D01*
X36069464Y35286453D01*
X35890204Y34854747D01*
X35889796Y34387303D01*
X35699797Y34387303D01*
X35700204Y34852697D01*
X35521698Y35284715D01*
X35191453Y35615536D01*
X34759747Y35794796D01*
X34292303Y35795204D01*
X33860285Y35616698D01*
X33721136Y35477791D01*
X33613331Y35639131D01*
X32325159Y36927303D01*
X33349796Y36927303D01*
X33528302Y36495285D01*
X33858547Y36164464D01*
X34290253Y35985204D01*
X34757697Y35984796D01*
X35189715Y36163302D01*
X35520536Y36493547D01*
X35699796Y36925253D01*
X35699797Y36927303D01*
X35889796Y36927303D01*
X36068302Y36495285D01*
X36398547Y36164464D01*
X36830253Y35985204D01*
X37297697Y35984796D01*
X37729715Y36163302D01*
X38060536Y36493547D01*
X38239796Y36925253D01*
X38240204Y37392697D01*
X38061698Y37824715D01*
X37731453Y38155536D01*
X37299747Y38334796D01*
X36832303Y38335204D01*
X36400285Y38156698D01*
X36069464Y37826453D01*
X35890204Y37394747D01*
X35889796Y36927303D01*
X35699797Y36927303D01*
X35700204Y37392697D01*
X35521698Y37824715D01*
X35191453Y38155536D01*
X34759747Y38334796D01*
X34292303Y38335204D01*
X33860285Y38156698D01*
X33529464Y37826453D01*
X33350204Y37394747D01*
X33349796Y36927303D01*
X32325159Y36927303D01*
X30125000Y39127462D01*
X30125000Y39467303D01*
X35889796Y39467303D01*
X36068302Y39035285D01*
X36398547Y38704464D01*
X36830253Y38525204D01*
X37297697Y38524796D01*
X37729715Y38703302D01*
X38060536Y39033547D01*
X38239796Y39465253D01*
X38240204Y39932697D01*
X38061698Y40364715D01*
X37731453Y40695536D01*
X37299747Y40874796D01*
X36832303Y40875204D01*
X36400285Y40696698D01*
X36069464Y40366453D01*
X35890204Y39934747D01*
X35889796Y39467303D01*
X30125000Y39467303D01*
X30125000Y44000000D01*
X30115152Y44048632D01*
X30087159Y44089601D01*
X30045432Y44116451D01*
X30000000Y44125000D01*
X29810292Y44125000D01*
X29984796Y44545253D01*
X29985204Y45012697D01*
X29806698Y45444715D01*
X29642827Y45608872D01*
X44024657Y45608872D01*
X44324700Y44882714D01*
X44879791Y44326652D01*
X45605425Y44025343D01*
X46391128Y44024657D01*
X47117286Y44324700D01*
X47673348Y44879791D01*
X47974657Y45605425D01*
X47975343Y46391128D01*
X47675300Y47117286D01*
X47120209Y47673348D01*
X46394575Y47974657D01*
X45608872Y47975343D01*
X44882714Y47675300D01*
X44326652Y47120209D01*
X44025343Y46394575D01*
X44024657Y45608872D01*
X29642827Y45608872D01*
X29476453Y45775536D01*
X29044747Y45954796D01*
X28577303Y45955204D01*
X28145285Y45776698D01*
X27814464Y45446453D01*
X27635204Y45014747D01*
X27634796Y44547303D01*
X27693285Y44405747D01*
X22108369Y38820831D01*
X21994563Y38650509D01*
X21954600Y38449600D01*
X21954600Y38057218D01*
X21856453Y38155536D01*
X21424747Y38334796D01*
X20957303Y38335204D01*
X20815719Y38276703D01*
X19625056Y39467303D01*
X20014796Y39467303D01*
X20193302Y39035285D01*
X20523547Y38704464D01*
X20955253Y38525204D01*
X21422697Y38524796D01*
X21854715Y38703302D01*
X22185536Y39033547D01*
X22364796Y39465253D01*
X22365204Y39932697D01*
X22186698Y40364715D01*
X21856453Y40695536D01*
X21424747Y40874796D01*
X20957303Y40875204D01*
X20525285Y40696698D01*
X20194464Y40366453D01*
X20015204Y39934747D01*
X20014796Y39467303D01*
X19625056Y39467303D01*
X17828221Y41264041D01*
X17747535Y41317951D01*
X17657909Y41377837D01*
X17657901Y41377839D01*
X17657896Y41377842D01*
X17564602Y41396397D01*
X17457000Y41417800D01*
X14128000Y41417800D01*
X14028116Y41397932D01*
X13927132Y41377854D01*
X13927113Y41377841D01*
X13927091Y41377837D01*
X13841517Y41320658D01*
X13756800Y41264062D01*
X13309449Y40816786D01*
X13169747Y40874796D01*
X12702303Y40875204D01*
X12270285Y40696698D01*
X11939464Y40366453D01*
X11760204Y39934747D01*
X11759796Y39467303D01*
X11938302Y39035285D01*
X12155617Y38817591D01*
X12004669Y38716731D01*
X11377069Y38089131D01*
X11263263Y37918809D01*
X11223300Y37717900D01*
X11223300Y31580100D01*
X11263263Y31379191D01*
X11377069Y31208869D01*
X12027569Y30558369D01*
X12185969Y30452529D01*
X11939464Y30206453D01*
X11760204Y29774747D01*
X11759796Y29307303D01*
X11938302Y28875285D01*
X12268547Y28544464D01*
X12700253Y28365204D01*
X13167697Y28364796D01*
X13309404Y28423348D01*
X13953822Y27779116D01*
X14038543Y27722525D01*
X14124091Y27665363D01*
X14124129Y27665355D01*
X14124161Y27665334D01*
X14224482Y27645394D01*
X14325000Y27625400D01*
X14462417Y27625400D01*
X14300204Y27234747D01*
X14299796Y26767303D01*
X14358304Y26625702D01*
X13931753Y26199115D01*
X13873328Y26111668D01*
X13817963Y26028809D01*
X13817961Y26028798D01*
X13817954Y26028788D01*
X13797007Y25923453D01*
X13778000Y25827900D01*
X13778000Y25278681D01*
X13601453Y25455536D01*
X13169747Y25634796D01*
X12702303Y25635204D01*
X12270285Y25456698D01*
X11939464Y25126453D01*
X11760204Y24694747D01*
X11759796Y24227303D01*
X11938302Y23795285D01*
X12268547Y23464464D01*
X12700253Y23285204D01*
X13167697Y23284796D01*
X13599715Y23463302D01*
X13836444Y23699618D01*
X13875197Y23641635D01*
X13931769Y23556969D01*
X13931795Y23556952D01*
X13931812Y23556926D01*
X14275000Y23213818D01*
X14275000Y19200000D01*
X14284848Y19151368D01*
X14312841Y19110399D01*
X14315842Y19108468D01*
X14478302Y18715285D01*
X14808547Y18384464D01*
X15240253Y18205204D01*
X15707697Y18204796D01*
X15880101Y18276032D01*
X15917978Y18250710D01*
X15918039Y18250698D01*
X15918091Y18250663D01*
X16018955Y18230600D01*
X16118878Y18210700D01*
X16118939Y18210712D01*
X16119000Y18210700D01*
X17891323Y18210700D01*
X17938144Y18163797D01*
X18186145Y18060817D01*
X18454677Y18060583D01*
X18702857Y18163129D01*
X18892903Y18352844D01*
X18905165Y18382373D01*
X20073177Y17214361D01*
X20015204Y17074747D01*
X20014796Y16607303D01*
X20193302Y16175285D01*
X20523547Y15844464D01*
X20955253Y15665204D01*
X21422697Y15664796D01*
X21564253Y15723285D01*
X22875000Y14412538D01*
X22875000Y11597999D01*
X22692999Y11597999D01*
X22358151Y11531394D01*
X22074281Y11341718D01*
X21127619Y10395055D01*
X20957303Y10395204D01*
X20525285Y10216698D01*
X20403375Y10095000D01*
X16542437Y10095000D01*
X11475000Y15162436D01*
X11475000Y16607303D01*
X11759796Y16607303D01*
X11938302Y16175285D01*
X12268547Y15844464D01*
X12700253Y15665204D01*
X13167697Y15664796D01*
X13599715Y15843302D01*
X13930536Y16173547D01*
X14109796Y16605253D01*
X14109797Y16607303D01*
X14299796Y16607303D01*
X14478302Y16175285D01*
X14808547Y15844464D01*
X15240253Y15665204D01*
X15707697Y15664796D01*
X15849253Y15723285D01*
X17643769Y13928769D01*
X17814091Y13814963D01*
X18015000Y13775000D01*
X20135573Y13775000D01*
X20193302Y13635285D01*
X20523547Y13304464D01*
X20955253Y13125204D01*
X21422697Y13124796D01*
X21854715Y13303302D01*
X22185536Y13633547D01*
X22364796Y14065253D01*
X22365204Y14532697D01*
X22186698Y14964715D01*
X21856453Y15295536D01*
X21424747Y15474796D01*
X20957303Y15475204D01*
X20525285Y15296698D01*
X20194464Y14966453D01*
X20135728Y14825000D01*
X18232462Y14825000D01*
X16591823Y16465639D01*
X16649796Y16605253D01*
X16650204Y17072697D01*
X16471698Y17504715D01*
X16141453Y17835536D01*
X15709747Y18014796D01*
X15242303Y18015204D01*
X14810285Y17836698D01*
X14479464Y17506453D01*
X14300204Y17074747D01*
X14299796Y16607303D01*
X14109797Y16607303D01*
X14110204Y17072697D01*
X13931698Y17504715D01*
X13601453Y17835536D01*
X13169747Y18014796D01*
X12702303Y18015204D01*
X12270285Y17836698D01*
X11939464Y17506453D01*
X11760204Y17074747D01*
X11759796Y16607303D01*
X11475000Y16607303D01*
X11475000Y16702865D01*
X11489601Y16712841D01*
X11516451Y16754568D01*
X11525000Y16800000D01*
X11525000Y19100902D01*
X11641599Y19175931D01*
X11727223Y19301246D01*
X11757346Y19450000D01*
X11757346Y20650000D01*
X11731198Y20788966D01*
X11649069Y20916599D01*
X11644084Y20920005D01*
X11661477Y20931197D01*
X11745455Y21054104D01*
X11775000Y21200000D01*
X11775000Y21650506D01*
X11938302Y21255285D01*
X12268547Y20924464D01*
X12700253Y20745204D01*
X13167697Y20744796D01*
X13599715Y20923302D01*
X13930536Y21253547D01*
X14109796Y21685253D01*
X14110204Y22152697D01*
X13931698Y22584715D01*
X13601453Y22915536D01*
X13169747Y23094796D01*
X12702303Y23095204D01*
X12270285Y22916698D01*
X11939464Y22586453D01*
X11775000Y22190380D01*
X11775000Y22800000D01*
X11749354Y22936297D01*
X11668803Y23061477D01*
X11545896Y23145455D01*
X11400000Y23175000D01*
X9875000Y23175000D01*
X9875000Y23337564D01*
X10618719Y24081282D01*
X10808395Y24365152D01*
X10875000Y24700000D01*
X10875000Y26767303D01*
X11759796Y26767303D01*
X11938302Y26335285D01*
X12268547Y26004464D01*
X12700253Y25825204D01*
X13167697Y25824796D01*
X13599715Y26003302D01*
X13930536Y26333547D01*
X14109796Y26765253D01*
X14110204Y27232697D01*
X13931698Y27664715D01*
X13601453Y27995536D01*
X13169747Y28174796D01*
X12702303Y28175204D01*
X12270285Y27996698D01*
X11939464Y27666453D01*
X11760204Y27234747D01*
X11759796Y26767303D01*
X10875000Y26767303D01*
X10875000Y41637564D01*
X11244739Y42007303D01*
X20014796Y42007303D01*
X20193302Y41575285D01*
X20523547Y41244464D01*
X20955253Y41065204D01*
X21422697Y41064796D01*
X21854715Y41243302D01*
X22185536Y41573547D01*
X22364796Y42005253D01*
X22365204Y42472697D01*
X22186698Y42904715D01*
X21856453Y43235536D01*
X21424747Y43414796D01*
X20957303Y43415204D01*
X20525285Y43236698D01*
X20194464Y42906453D01*
X20015204Y42474747D01*
X20014796Y42007303D01*
X11244739Y42007303D01*
X13142437Y43905000D01*
X20403221Y43905000D01*
X20523547Y43784464D01*
X20955253Y43605204D01*
X21422697Y43604796D01*
X21854715Y43783302D01*
X22185536Y44113547D01*
X22364796Y44545253D01*
X22365204Y45012697D01*
X22186698Y45444715D01*
X22065000Y45566625D01*
X22065000Y46533221D01*
X22185536Y46653547D01*
X22364796Y47085253D01*
X22365204Y47552697D01*
X22186698Y47984715D01*
X21856453Y48315536D01*
X21424747Y48494796D01*
X20957303Y48495204D01*
X20525285Y48316698D01*
X20194464Y47986453D01*
X20015204Y47554747D01*
X20014796Y47087303D01*
X20193302Y46655285D01*
X20315000Y46533375D01*
X20315000Y45655000D01*
X12780000Y45655000D01*
X12445152Y45588395D01*
X12161282Y45398719D01*
X9381282Y42618718D01*
X9191605Y42334848D01*
X9125000Y42000000D01*
X9125000Y25062437D01*
X8381282Y24318718D01*
X8191605Y24034848D01*
X8125000Y23700000D01*
X8125000Y23175000D01*
X6600000Y23175000D01*
X6458890Y23147438D01*
X6334835Y23065165D01*
X6134835Y22865165D01*
X6054545Y22745896D01*
X6025000Y22600000D01*
X6025000Y22563596D01*
X5997777Y22523754D01*
X5967654Y22375000D01*
X5967654Y21625000D01*
X5993802Y21486034D01*
X6025000Y21437551D01*
X6025000Y19600000D01*
X6050646Y19463703D01*
X6131197Y19338523D01*
X6187654Y19299948D01*
X6187654Y18675000D01*
X5725000Y18675000D01*
X5725000Y19392497D01*
X5782223Y19476246D01*
X5812346Y19625000D01*
X5812346Y20275000D01*
X5786198Y20413966D01*
X5704069Y20541599D01*
X5578754Y20627223D01*
X5430000Y20657346D01*
X5051537Y20657346D01*
X4316942Y21391942D01*
X4114177Y21527425D01*
X3875000Y21575000D01*
X3752642Y21575000D01*
X3731198Y21688966D01*
X3649069Y21816599D01*
X3523754Y21902223D01*
X3375000Y21932346D01*
X2625000Y21932346D01*
X2486034Y21906198D01*
X2358401Y21824069D01*
X2272777Y21698754D01*
X2242654Y21550000D01*
X450000Y21550000D01*
X450000Y45608872D01*
X2024657Y45608872D01*
X2324700Y44882714D01*
X2879791Y44326652D01*
X3605425Y44025343D01*
X4391128Y44024657D01*
X5117286Y44324700D01*
X5673348Y44879791D01*
X5974657Y45605425D01*
X5975343Y46391128D01*
X5675300Y47117286D01*
X5120209Y47673348D01*
X4394575Y47974657D01*
X3608872Y47975343D01*
X2882714Y47675300D01*
X2326652Y47120209D01*
X2025343Y46394575D01*
X2024657Y45608872D01*
X450000Y45608872D01*
X450000Y49550000D01*
X49550000Y49550000D01*
X49550000Y450000D01*
X49550000Y450000D01*
G37*
X49550000Y450000D02*
X450000Y450000D01*
X450000Y3608872D01*
X2024657Y3608872D01*
X2324700Y2882714D01*
X2879791Y2326652D01*
X3605425Y2025343D01*
X4391128Y2024657D01*
X5117286Y2324700D01*
X5673348Y2879791D01*
X5974657Y3605425D01*
X5974660Y3608872D01*
X44024657Y3608872D01*
X44324700Y2882714D01*
X44879791Y2326652D01*
X45605425Y2025343D01*
X46391128Y2024657D01*
X47117286Y2324700D01*
X47673348Y2879791D01*
X47974657Y3605425D01*
X47975343Y4391128D01*
X47675300Y5117286D01*
X47120209Y5673348D01*
X46394575Y5974657D01*
X45608872Y5975343D01*
X44882714Y5675300D01*
X44326652Y5120209D01*
X44025343Y4394575D01*
X44024657Y3608872D01*
X5974660Y3608872D01*
X5975343Y4391128D01*
X5675300Y5117286D01*
X5120209Y5673348D01*
X4394575Y5974657D01*
X3608872Y5975343D01*
X2882714Y5675300D01*
X2326652Y5120209D01*
X2025343Y4394575D01*
X2024657Y3608872D01*
X450000Y3608872D01*
X450000Y21550000D01*
X2242654Y21550000D01*
X2242654Y20350000D01*
X2268802Y20211034D01*
X2350931Y20083401D01*
X2476246Y19997777D01*
X2625000Y19967654D01*
X3375000Y19967654D01*
X3513966Y19993802D01*
X3641599Y20075931D01*
X3727223Y20201246D01*
X3729353Y20211764D01*
X3987654Y19953463D01*
X3987654Y19625000D01*
X3995969Y19580807D01*
X3688388Y19888388D01*
X3648632Y19915152D01*
X3600000Y19925000D01*
X2400000Y19925000D01*
X2354568Y19916451D01*
X2312841Y19889601D01*
X2284848Y19848632D01*
X2275000Y19800000D01*
X2275000Y16200000D01*
X2283549Y16154568D01*
X2310399Y16112841D01*
X2351368Y16084848D01*
X2400000Y16075000D01*
X3141116Y16075000D01*
X3098462Y16032346D01*
X2625000Y16032346D01*
X2486034Y16006198D01*
X2358401Y15924069D01*
X2272777Y15798754D01*
X2242654Y15650000D01*
X2242654Y14450000D01*
X2268802Y14311034D01*
X2350931Y14183401D01*
X2375000Y14166955D01*
X2375000Y12460000D01*
X2422575Y12220823D01*
X2558058Y12018058D01*
X3061654Y11514462D01*
X3061654Y9984000D01*
X3087802Y9845034D01*
X3169931Y9717401D01*
X3295246Y9631777D01*
X3444000Y9601654D01*
X5476000Y9601654D01*
X5614966Y9627802D01*
X5742599Y9709931D01*
X5828223Y9835246D01*
X5858346Y9984000D01*
X5858346Y12016000D01*
X5832198Y12154966D01*
X5750069Y12282599D01*
X5624754Y12368223D01*
X5476000Y12398346D01*
X3945538Y12398346D01*
X3625000Y12718884D01*
X3625000Y14165250D01*
X3641599Y14175931D01*
X3727223Y14301246D01*
X3757346Y14450000D01*
X3757346Y14923462D01*
X5341942Y16508058D01*
X5477425Y16710823D01*
X5525001Y16950000D01*
X5525000Y16950005D01*
X5525000Y17360529D01*
X5568966Y17368802D01*
X5656301Y17425000D01*
X6344815Y17425000D01*
X6421246Y17372777D01*
X6475000Y17361892D01*
X6475000Y15790000D01*
X6522575Y15550823D01*
X6658058Y15348058D01*
X15448058Y6558058D01*
X15650822Y6422575D01*
X15890000Y6375000D01*
X29400000Y6375000D01*
X29639177Y6422575D01*
X29841942Y6558058D01*
X32441942Y9158058D01*
X32577425Y9360822D01*
X32625000Y9600000D01*
X32625000Y11527303D01*
X33349796Y11527303D01*
X33528302Y11095285D01*
X33858547Y10764464D01*
X34290253Y10585204D01*
X34757697Y10584796D01*
X35189715Y10763302D01*
X35520536Y11093547D01*
X35699796Y11525253D01*
X35700204Y11992697D01*
X35521698Y12424715D01*
X35191453Y12755536D01*
X34759747Y12934796D01*
X34292303Y12935204D01*
X33860285Y12756698D01*
X33529464Y12426453D01*
X33350204Y11994747D01*
X33349796Y11527303D01*
X32625000Y11527303D01*
X32625000Y14145015D01*
X32674883Y14265145D01*
X32675117Y14533677D01*
X32572571Y14781857D01*
X32382856Y14971903D01*
X32367691Y14978200D01*
X33541231Y14978200D01*
X33529464Y14966453D01*
X33350204Y14534747D01*
X33349796Y14067303D01*
X33528302Y13635285D01*
X33858547Y13304464D01*
X34290253Y13125204D01*
X34757697Y13124796D01*
X34899253Y13183285D01*
X35303770Y12778768D01*
X35474092Y12664962D01*
X35675001Y12624999D01*
X44432538Y12625000D01*
X45324941Y11732597D01*
X45324883Y11666323D01*
X45427429Y11418143D01*
X45617144Y11228097D01*
X45865145Y11125117D01*
X46133677Y11124883D01*
X46381857Y11227429D01*
X46571903Y11417144D01*
X46596352Y11476023D01*
X46601727Y11475012D01*
X46650218Y11485531D01*
X46690796Y11514087D01*
X46717068Y11556181D01*
X46725000Y11600000D01*
X46725000Y17000000D01*
X46715152Y17048632D01*
X46687159Y17089601D01*
X46675085Y17097370D01*
X46675117Y17133677D01*
X46572571Y17381857D01*
X46382856Y17571903D01*
X46134855Y17674883D01*
X45866323Y17675117D01*
X45618143Y17572571D01*
X45428097Y17382856D01*
X45325117Y17134855D01*
X45325058Y17067520D01*
X43182538Y14925000D01*
X40925000Y14925000D01*
X40925000Y20582538D01*
X43867403Y23524941D01*
X43933677Y23524883D01*
X44181857Y23627429D01*
X44371903Y23817144D01*
X44474883Y24065145D01*
X44475117Y24333677D01*
X44372571Y24581857D01*
X44325000Y24629511D01*
X44325000Y28605244D01*
X44383903Y28664044D01*
X44486883Y28912045D01*
X44487117Y29180577D01*
X44384571Y29428757D01*
X44194856Y29618803D01*
X43946855Y29721783D01*
X43678323Y29722017D01*
X43430143Y29619471D01*
X43240097Y29429756D01*
X43137117Y29181755D01*
X43136883Y28913223D01*
X43239429Y28665043D01*
X43275000Y28629410D01*
X43275000Y24629677D01*
X43228097Y24582856D01*
X43125117Y24334855D01*
X43125058Y24267520D01*
X39628769Y20771231D01*
X39597878Y20725000D01*
X38325000Y20725000D01*
X38325000Y30400000D01*
X38315152Y30448632D01*
X38287159Y30489601D01*
X38245432Y30516451D01*
X38200000Y30525000D01*
X37741971Y30525000D01*
X37731453Y30535536D01*
X37299747Y30714796D01*
X36832303Y30715204D01*
X36400285Y30536698D01*
X36388567Y30525000D01*
X36000000Y30525000D01*
X35951368Y30515152D01*
X35934580Y30503682D01*
X35376631Y31061631D01*
X35251657Y31145136D01*
X35520536Y31413547D01*
X35699796Y31845253D01*
X35699797Y31847303D01*
X35889796Y31847303D01*
X36068302Y31415285D01*
X36398547Y31084464D01*
X36830253Y30905204D01*
X37297697Y30904796D01*
X37729715Y31083302D01*
X38060536Y31413547D01*
X38239796Y31845253D01*
X38240204Y32312697D01*
X38061698Y32744715D01*
X37731453Y33075536D01*
X37299747Y33254796D01*
X36832303Y33255204D01*
X36400285Y33076698D01*
X36069464Y32746453D01*
X35890204Y32314747D01*
X35889796Y31847303D01*
X35699797Y31847303D01*
X35700204Y32312697D01*
X35521698Y32744715D01*
X35191453Y33075536D01*
X34759747Y33254796D01*
X34292303Y33255204D01*
X33860285Y33076698D01*
X33767100Y32983675D01*
X33767100Y33716070D01*
X33858547Y33624464D01*
X34290253Y33445204D01*
X34757697Y33444796D01*
X35189715Y33623302D01*
X35520536Y33953547D01*
X35699796Y34385253D01*
X35699797Y34387303D01*
X35889796Y34387303D01*
X36068302Y33955285D01*
X36398547Y33624464D01*
X36830253Y33445204D01*
X37297697Y33444796D01*
X37729715Y33623302D01*
X38060536Y33953547D01*
X38239796Y34385253D01*
X38240204Y34852697D01*
X38061698Y35284715D01*
X37731453Y35615536D01*
X37299747Y35794796D01*
X36832303Y35795204D01*
X36400285Y35616698D01*
X36069464Y35286453D01*
X35890204Y34854747D01*
X35889796Y34387303D01*
X35699797Y34387303D01*
X35700204Y34852697D01*
X35521698Y35284715D01*
X35191453Y35615536D01*
X34759747Y35794796D01*
X34292303Y35795204D01*
X33860285Y35616698D01*
X33721136Y35477791D01*
X33613331Y35639131D01*
X32325159Y36927303D01*
X33349796Y36927303D01*
X33528302Y36495285D01*
X33858547Y36164464D01*
X34290253Y35985204D01*
X34757697Y35984796D01*
X35189715Y36163302D01*
X35520536Y36493547D01*
X35699796Y36925253D01*
X35699797Y36927303D01*
X35889796Y36927303D01*
X36068302Y36495285D01*
X36398547Y36164464D01*
X36830253Y35985204D01*
X37297697Y35984796D01*
X37729715Y36163302D01*
X38060536Y36493547D01*
X38239796Y36925253D01*
X38240204Y37392697D01*
X38061698Y37824715D01*
X37731453Y38155536D01*
X37299747Y38334796D01*
X36832303Y38335204D01*
X36400285Y38156698D01*
X36069464Y37826453D01*
X35890204Y37394747D01*
X35889796Y36927303D01*
X35699797Y36927303D01*
X35700204Y37392697D01*
X35521698Y37824715D01*
X35191453Y38155536D01*
X34759747Y38334796D01*
X34292303Y38335204D01*
X33860285Y38156698D01*
X33529464Y37826453D01*
X33350204Y37394747D01*
X33349796Y36927303D01*
X32325159Y36927303D01*
X30125000Y39127462D01*
X30125000Y39467303D01*
X35889796Y39467303D01*
X36068302Y39035285D01*
X36398547Y38704464D01*
X36830253Y38525204D01*
X37297697Y38524796D01*
X37729715Y38703302D01*
X38060536Y39033547D01*
X38239796Y39465253D01*
X38240204Y39932697D01*
X38061698Y40364715D01*
X37731453Y40695536D01*
X37299747Y40874796D01*
X36832303Y40875204D01*
X36400285Y40696698D01*
X36069464Y40366453D01*
X35890204Y39934747D01*
X35889796Y39467303D01*
X30125000Y39467303D01*
X30125000Y44000000D01*
X30115152Y44048632D01*
X30087159Y44089601D01*
X30045432Y44116451D01*
X30000000Y44125000D01*
X29810292Y44125000D01*
X29984796Y44545253D01*
X29985204Y45012697D01*
X29806698Y45444715D01*
X29642827Y45608872D01*
X44024657Y45608872D01*
X44324700Y44882714D01*
X44879791Y44326652D01*
X45605425Y44025343D01*
X46391128Y44024657D01*
X47117286Y44324700D01*
X47673348Y44879791D01*
X47974657Y45605425D01*
X47975343Y46391128D01*
X47675300Y47117286D01*
X47120209Y47673348D01*
X46394575Y47974657D01*
X45608872Y47975343D01*
X44882714Y47675300D01*
X44326652Y47120209D01*
X44025343Y46394575D01*
X44024657Y45608872D01*
X29642827Y45608872D01*
X29476453Y45775536D01*
X29044747Y45954796D01*
X28577303Y45955204D01*
X28145285Y45776698D01*
X27814464Y45446453D01*
X27635204Y45014747D01*
X27634796Y44547303D01*
X27693285Y44405747D01*
X22108369Y38820831D01*
X21994563Y38650509D01*
X21954600Y38449600D01*
X21954600Y38057218D01*
X21856453Y38155536D01*
X21424747Y38334796D01*
X20957303Y38335204D01*
X20815719Y38276703D01*
X19625056Y39467303D01*
X20014796Y39467303D01*
X20193302Y39035285D01*
X20523547Y38704464D01*
X20955253Y38525204D01*
X21422697Y38524796D01*
X21854715Y38703302D01*
X22185536Y39033547D01*
X22364796Y39465253D01*
X22365204Y39932697D01*
X22186698Y40364715D01*
X21856453Y40695536D01*
X21424747Y40874796D01*
X20957303Y40875204D01*
X20525285Y40696698D01*
X20194464Y40366453D01*
X20015204Y39934747D01*
X20014796Y39467303D01*
X19625056Y39467303D01*
X17828221Y41264041D01*
X17747535Y41317951D01*
X17657909Y41377837D01*
X17657901Y41377839D01*
X17657896Y41377842D01*
X17564602Y41396397D01*
X17457000Y41417800D01*
X14128000Y41417800D01*
X14028116Y41397932D01*
X13927132Y41377854D01*
X13927113Y41377841D01*
X13927091Y41377837D01*
X13841517Y41320658D01*
X13756800Y41264062D01*
X13309449Y40816786D01*
X13169747Y40874796D01*
X12702303Y40875204D01*
X12270285Y40696698D01*
X11939464Y40366453D01*
X11760204Y39934747D01*
X11759796Y39467303D01*
X11938302Y39035285D01*
X12155617Y38817591D01*
X12004669Y38716731D01*
X11377069Y38089131D01*
X11263263Y37918809D01*
X11223300Y37717900D01*
X11223300Y31580100D01*
X11263263Y31379191D01*
X11377069Y31208869D01*
X12027569Y30558369D01*
X12185969Y30452529D01*
X11939464Y30206453D01*
X11760204Y29774747D01*
X11759796Y29307303D01*
X11938302Y28875285D01*
X12268547Y28544464D01*
X12700253Y28365204D01*
X13167697Y28364796D01*
X13309404Y28423348D01*
X13953822Y27779116D01*
X14038543Y27722525D01*
X14124091Y27665363D01*
X14124129Y27665355D01*
X14124161Y27665334D01*
X14224482Y27645394D01*
X14325000Y27625400D01*
X14462417Y27625400D01*
X14300204Y27234747D01*
X14299796Y26767303D01*
X14358304Y26625702D01*
X13931753Y26199115D01*
X13873328Y26111668D01*
X13817963Y26028809D01*
X13817961Y26028798D01*
X13817954Y26028788D01*
X13797007Y25923453D01*
X13778000Y25827900D01*
X13778000Y25278681D01*
X13601453Y25455536D01*
X13169747Y25634796D01*
X12702303Y25635204D01*
X12270285Y25456698D01*
X11939464Y25126453D01*
X11760204Y24694747D01*
X11759796Y24227303D01*
X11938302Y23795285D01*
X12268547Y23464464D01*
X12700253Y23285204D01*
X13167697Y23284796D01*
X13599715Y23463302D01*
X13836444Y23699618D01*
X13875197Y23641635D01*
X13931769Y23556969D01*
X13931795Y23556952D01*
X13931812Y23556926D01*
X14275000Y23213818D01*
X14275000Y19200000D01*
X14284848Y19151368D01*
X14312841Y19110399D01*
X14315842Y19108468D01*
X14478302Y18715285D01*
X14808547Y18384464D01*
X15240253Y18205204D01*
X15707697Y18204796D01*
X15880101Y18276032D01*
X15917978Y18250710D01*
X15918039Y18250698D01*
X15918091Y18250663D01*
X16018955Y18230600D01*
X16118878Y18210700D01*
X16118939Y18210712D01*
X16119000Y18210700D01*
X17891323Y18210700D01*
X17938144Y18163797D01*
X18186145Y18060817D01*
X18454677Y18060583D01*
X18702857Y18163129D01*
X18892903Y18352844D01*
X18905165Y18382373D01*
X20073177Y17214361D01*
X20015204Y17074747D01*
X20014796Y16607303D01*
X20193302Y16175285D01*
X20523547Y15844464D01*
X20955253Y15665204D01*
X21422697Y15664796D01*
X21564253Y15723285D01*
X22875000Y14412538D01*
X22875000Y11597999D01*
X22692999Y11597999D01*
X22358151Y11531394D01*
X22074281Y11341718D01*
X21127619Y10395055D01*
X20957303Y10395204D01*
X20525285Y10216698D01*
X20403375Y10095000D01*
X16542437Y10095000D01*
X11475000Y15162436D01*
X11475000Y16607303D01*
X11759796Y16607303D01*
X11938302Y16175285D01*
X12268547Y15844464D01*
X12700253Y15665204D01*
X13167697Y15664796D01*
X13599715Y15843302D01*
X13930536Y16173547D01*
X14109796Y16605253D01*
X14109797Y16607303D01*
X14299796Y16607303D01*
X14478302Y16175285D01*
X14808547Y15844464D01*
X15240253Y15665204D01*
X15707697Y15664796D01*
X15849253Y15723285D01*
X17643769Y13928769D01*
X17814091Y13814963D01*
X18015000Y13775000D01*
X20135573Y13775000D01*
X20193302Y13635285D01*
X20523547Y13304464D01*
X20955253Y13125204D01*
X21422697Y13124796D01*
X21854715Y13303302D01*
X22185536Y13633547D01*
X22364796Y14065253D01*
X22365204Y14532697D01*
X22186698Y14964715D01*
X21856453Y15295536D01*
X21424747Y15474796D01*
X20957303Y15475204D01*
X20525285Y15296698D01*
X20194464Y14966453D01*
X20135728Y14825000D01*
X18232462Y14825000D01*
X16591823Y16465639D01*
X16649796Y16605253D01*
X16650204Y17072697D01*
X16471698Y17504715D01*
X16141453Y17835536D01*
X15709747Y18014796D01*
X15242303Y18015204D01*
X14810285Y17836698D01*
X14479464Y17506453D01*
X14300204Y17074747D01*
X14299796Y16607303D01*
X14109797Y16607303D01*
X14110204Y17072697D01*
X13931698Y17504715D01*
X13601453Y17835536D01*
X13169747Y18014796D01*
X12702303Y18015204D01*
X12270285Y17836698D01*
X11939464Y17506453D01*
X11760204Y17074747D01*
X11759796Y16607303D01*
X11475000Y16607303D01*
X11475000Y16702865D01*
X11489601Y16712841D01*
X11516451Y16754568D01*
X11525000Y16800000D01*
X11525000Y19100902D01*
X11641599Y19175931D01*
X11727223Y19301246D01*
X11757346Y19450000D01*
X11757346Y20650000D01*
X11731198Y20788966D01*
X11649069Y20916599D01*
X11644084Y20920005D01*
X11661477Y20931197D01*
X11745455Y21054104D01*
X11775000Y21200000D01*
X11775000Y21650506D01*
X11938302Y21255285D01*
X12268547Y20924464D01*
X12700253Y20745204D01*
X13167697Y20744796D01*
X13599715Y20923302D01*
X13930536Y21253547D01*
X14109796Y21685253D01*
X14110204Y22152697D01*
X13931698Y22584715D01*
X13601453Y22915536D01*
X13169747Y23094796D01*
X12702303Y23095204D01*
X12270285Y22916698D01*
X11939464Y22586453D01*
X11775000Y22190380D01*
X11775000Y22800000D01*
X11749354Y22936297D01*
X11668803Y23061477D01*
X11545896Y23145455D01*
X11400000Y23175000D01*
X9875000Y23175000D01*
X9875000Y23337564D01*
X10618719Y24081282D01*
X10808395Y24365152D01*
X10875000Y24700000D01*
X10875000Y26767303D01*
X11759796Y26767303D01*
X11938302Y26335285D01*
X12268547Y26004464D01*
X12700253Y25825204D01*
X13167697Y25824796D01*
X13599715Y26003302D01*
X13930536Y26333547D01*
X14109796Y26765253D01*
X14110204Y27232697D01*
X13931698Y27664715D01*
X13601453Y27995536D01*
X13169747Y28174796D01*
X12702303Y28175204D01*
X12270285Y27996698D01*
X11939464Y27666453D01*
X11760204Y27234747D01*
X11759796Y26767303D01*
X10875000Y26767303D01*
X10875000Y41637564D01*
X11244739Y42007303D01*
X20014796Y42007303D01*
X20193302Y41575285D01*
X20523547Y41244464D01*
X20955253Y41065204D01*
X21422697Y41064796D01*
X21854715Y41243302D01*
X22185536Y41573547D01*
X22364796Y42005253D01*
X22365204Y42472697D01*
X22186698Y42904715D01*
X21856453Y43235536D01*
X21424747Y43414796D01*
X20957303Y43415204D01*
X20525285Y43236698D01*
X20194464Y42906453D01*
X20015204Y42474747D01*
X20014796Y42007303D01*
X11244739Y42007303D01*
X13142437Y43905000D01*
X20403221Y43905000D01*
X20523547Y43784464D01*
X20955253Y43605204D01*
X21422697Y43604796D01*
X21854715Y43783302D01*
X22185536Y44113547D01*
X22364796Y44545253D01*
X22365204Y45012697D01*
X22186698Y45444715D01*
X22065000Y45566625D01*
X22065000Y46533221D01*
X22185536Y46653547D01*
X22364796Y47085253D01*
X22365204Y47552697D01*
X22186698Y47984715D01*
X21856453Y48315536D01*
X21424747Y48494796D01*
X20957303Y48495204D01*
X20525285Y48316698D01*
X20194464Y47986453D01*
X20015204Y47554747D01*
X20014796Y47087303D01*
X20193302Y46655285D01*
X20315000Y46533375D01*
X20315000Y45655000D01*
X12780000Y45655000D01*
X12445152Y45588395D01*
X12161282Y45398719D01*
X9381282Y42618718D01*
X9191605Y42334848D01*
X9125000Y42000000D01*
X9125000Y25062437D01*
X8381282Y24318718D01*
X8191605Y24034848D01*
X8125000Y23700000D01*
X8125000Y23175000D01*
X6600000Y23175000D01*
X6458890Y23147438D01*
X6334835Y23065165D01*
X6134835Y22865165D01*
X6054545Y22745896D01*
X6025000Y22600000D01*
X6025000Y22563596D01*
X5997777Y22523754D01*
X5967654Y22375000D01*
X5967654Y21625000D01*
X5993802Y21486034D01*
X6025000Y21437551D01*
X6025000Y19600000D01*
X6050646Y19463703D01*
X6131197Y19338523D01*
X6187654Y19299948D01*
X6187654Y18675000D01*
X5725000Y18675000D01*
X5725000Y19392497D01*
X5782223Y19476246D01*
X5812346Y19625000D01*
X5812346Y20275000D01*
X5786198Y20413966D01*
X5704069Y20541599D01*
X5578754Y20627223D01*
X5430000Y20657346D01*
X5051537Y20657346D01*
X4316942Y21391942D01*
X4114177Y21527425D01*
X3875000Y21575000D01*
X3752642Y21575000D01*
X3731198Y21688966D01*
X3649069Y21816599D01*
X3523754Y21902223D01*
X3375000Y21932346D01*
X2625000Y21932346D01*
X2486034Y21906198D01*
X2358401Y21824069D01*
X2272777Y21698754D01*
X2242654Y21550000D01*
X450000Y21550000D01*
X450000Y45608872D01*
X2024657Y45608872D01*
X2324700Y44882714D01*
X2879791Y44326652D01*
X3605425Y44025343D01*
X4391128Y44024657D01*
X5117286Y44324700D01*
X5673348Y44879791D01*
X5974657Y45605425D01*
X5975343Y46391128D01*
X5675300Y47117286D01*
X5120209Y47673348D01*
X4394575Y47974657D01*
X3608872Y47975343D01*
X2882714Y47675300D01*
X2326652Y47120209D01*
X2025343Y46394575D01*
X2024657Y45608872D01*
X450000Y45608872D01*
X450000Y49550000D01*
X49550000Y49550000D01*
X49550000Y450000D01*
G36*
X9725000Y14800000D02*
X9791605Y14465152D01*
X9981282Y14181282D01*
X15561282Y8601281D01*
X15845152Y8411605D01*
X16180000Y8345000D01*
X20403221Y8345000D01*
X20523547Y8224464D01*
X20955253Y8045204D01*
X21422697Y8044796D01*
X21854715Y8223302D01*
X22185536Y8553547D01*
X22364796Y8985253D01*
X22364946Y9157510D01*
X23055436Y9847999D01*
X25258497Y9848000D01*
X25095204Y9454747D01*
X25094796Y8987303D01*
X25273302Y8555285D01*
X25603547Y8224464D01*
X26035253Y8045204D01*
X26502697Y8044796D01*
X26934715Y8223302D01*
X27265536Y8553547D01*
X27444796Y8985253D01*
X27445204Y9452697D01*
X27281868Y9848000D01*
X27582918Y9848000D01*
X27598000Y9845000D01*
X27816471Y9888456D01*
X27814464Y9886453D01*
X27635204Y9454747D01*
X27634796Y8987303D01*
X27813302Y8555285D01*
X28143547Y8224464D01*
X28575253Y8045204D01*
X29042697Y8044796D01*
X29474715Y8223302D01*
X29805536Y8553547D01*
X29984796Y8985253D01*
X29985204Y9452697D01*
X29806698Y9884715D01*
X29476453Y10215536D01*
X29044747Y10394796D01*
X28577303Y10395204D01*
X28463701Y10348264D01*
X31218718Y13103281D01*
X31375000Y13337173D01*
X31375000Y9858884D01*
X29141116Y7625000D01*
X16148884Y7625000D01*
X7725000Y16048884D01*
X7725000Y16675000D01*
X9725000Y16675000D01*
X9725000Y14800000D01*
X9725000Y14800000D01*
G37*
X9725000Y14800000D02*
X9791605Y14465152D01*
X9981282Y14181282D01*
X15561282Y8601281D01*
X15845152Y8411605D01*
X16180000Y8345000D01*
X20403221Y8345000D01*
X20523547Y8224464D01*
X20955253Y8045204D01*
X21422697Y8044796D01*
X21854715Y8223302D01*
X22185536Y8553547D01*
X22364796Y8985253D01*
X22364946Y9157510D01*
X23055436Y9847999D01*
X25258497Y9848000D01*
X25095204Y9454747D01*
X25094796Y8987303D01*
X25273302Y8555285D01*
X25603547Y8224464D01*
X26035253Y8045204D01*
X26502697Y8044796D01*
X26934715Y8223302D01*
X27265536Y8553547D01*
X27444796Y8985253D01*
X27445204Y9452697D01*
X27281868Y9848000D01*
X27582918Y9848000D01*
X27598000Y9845000D01*
X27816471Y9888456D01*
X27814464Y9886453D01*
X27635204Y9454747D01*
X27634796Y8987303D01*
X27813302Y8555285D01*
X28143547Y8224464D01*
X28575253Y8045204D01*
X29042697Y8044796D01*
X29474715Y8223302D01*
X29805536Y8553547D01*
X29984796Y8985253D01*
X29985204Y9452697D01*
X29806698Y9884715D01*
X29476453Y10215536D01*
X29044747Y10394796D01*
X28577303Y10395204D01*
X28463701Y10348264D01*
X31218718Y13103281D01*
X31375000Y13337173D01*
X31375000Y9858884D01*
X29141116Y7625000D01*
X16148884Y7625000D01*
X7725000Y16048884D01*
X7725000Y16675000D01*
X9725000Y16675000D01*
X9725000Y14800000D01*
G36*
X30475000Y25325000D02*
X29606762Y25325000D01*
X29476453Y25455536D01*
X29044747Y25634796D01*
X28577303Y25635204D01*
X28145285Y25456698D01*
X27814464Y25126453D01*
X27635204Y24694747D01*
X27634796Y24227303D01*
X27813302Y23795285D01*
X27935000Y23673375D01*
X27935000Y22706779D01*
X27814464Y22586453D01*
X27635204Y22154747D01*
X27634796Y21687303D01*
X27813302Y21255285D01*
X28143547Y20924464D01*
X28575253Y20745204D01*
X28747510Y20745054D01*
X29725000Y19767563D01*
X29725000Y17586555D01*
X29476453Y17835536D01*
X29044747Y18014796D01*
X28577303Y18015204D01*
X28435747Y17956715D01*
X22831231Y23561231D01*
X22660909Y23675037D01*
X22460000Y23715000D01*
X20895466Y23715000D01*
X17601000Y27009558D01*
X17601000Y27046900D01*
X17580806Y27148422D01*
X17561082Y27247699D01*
X17561049Y27247748D01*
X17561037Y27247809D01*
X17503566Y27333821D01*
X17447315Y27418047D01*
X16344315Y28521547D01*
X16344265Y28521581D01*
X16344231Y28521631D01*
X16260114Y28577836D01*
X16208724Y28612191D01*
X16470536Y28873547D01*
X16649796Y29305253D01*
X16650204Y29772697D01*
X16471698Y30204715D01*
X16391553Y30285000D01*
X16883638Y30285000D01*
X17778869Y29389769D01*
X17949191Y29275963D01*
X18150100Y29236000D01*
X22057200Y29236000D01*
X22258109Y29275963D01*
X22428431Y29389769D01*
X23913662Y30875000D01*
X30475000Y30875000D01*
X30475000Y25325000D01*
X30475000Y25325000D01*
G37*
X30475000Y25325000D02*
X29606762Y25325000D01*
X29476453Y25455536D01*
X29044747Y25634796D01*
X28577303Y25635204D01*
X28145285Y25456698D01*
X27814464Y25126453D01*
X27635204Y24694747D01*
X27634796Y24227303D01*
X27813302Y23795285D01*
X27935000Y23673375D01*
X27935000Y22706779D01*
X27814464Y22586453D01*
X27635204Y22154747D01*
X27634796Y21687303D01*
X27813302Y21255285D01*
X28143547Y20924464D01*
X28575253Y20745204D01*
X28747510Y20745054D01*
X29725000Y19767563D01*
X29725000Y17586555D01*
X29476453Y17835536D01*
X29044747Y18014796D01*
X28577303Y18015204D01*
X28435747Y17956715D01*
X22831231Y23561231D01*
X22660909Y23675037D01*
X22460000Y23715000D01*
X20895466Y23715000D01*
X17601000Y27009558D01*
X17601000Y27046900D01*
X17580806Y27148422D01*
X17561082Y27247699D01*
X17561049Y27247748D01*
X17561037Y27247809D01*
X17503566Y27333821D01*
X17447315Y27418047D01*
X16344315Y28521547D01*
X16344265Y28521581D01*
X16344231Y28521631D01*
X16260114Y28577836D01*
X16208724Y28612191D01*
X16470536Y28873547D01*
X16649796Y29305253D01*
X16650204Y29772697D01*
X16471698Y30204715D01*
X16391553Y30285000D01*
X16883638Y30285000D01*
X17778869Y29389769D01*
X17949191Y29275963D01*
X18150100Y29236000D01*
X22057200Y29236000D01*
X22258109Y29275963D01*
X22428431Y29389769D01*
X23913662Y30875000D01*
X30475000Y30875000D01*
X30475000Y25325000D01*
M02*
