G04 #@! TF.FileFunction,Legend,Top*
%FSLAX46Y46*%
G04 Gerber Fmt 4.6, Leading zero omitted, Abs format (unit mm)*
G04 Created by KiCad (PCBNEW 4.0.0-rc1-stable) date 2016/05/03 6:10:00*
%MOMM*%
G01*
G04 APERTURE LIST*
%ADD10C,0.100000*%
%ADD11C,0.250000*%
%ADD12C,0.200000*%
%ADD13C,0.300000*%
%ADD14C,0.150000*%
G04 APERTURE END LIST*
D10*
D11*
X16952381Y3333333D02*
X17428572Y3333333D01*
X16857143Y3047619D02*
X17190476Y4047619D01*
X17523810Y3047619D01*
X17857143Y3047619D02*
X17857143Y4047619D01*
X18095238Y4047619D01*
X18238096Y4000000D01*
X18333334Y3904762D01*
X18380953Y3809524D01*
X18428572Y3619048D01*
X18428572Y3476190D01*
X18380953Y3285714D01*
X18333334Y3190476D01*
X18238096Y3095238D01*
X18095238Y3047619D01*
X17857143Y3047619D01*
X18761905Y4047619D02*
X19428572Y3047619D01*
X19428572Y4047619D02*
X18761905Y3047619D01*
X20285715Y3047619D02*
X19809524Y3047619D01*
X19809524Y4047619D01*
X20523810Y4047619D02*
X21142858Y4047619D01*
X20809524Y3666667D01*
X20952382Y3666667D01*
X21047620Y3619048D01*
X21095239Y3571429D01*
X21142858Y3476190D01*
X21142858Y3238095D01*
X21095239Y3142857D01*
X21047620Y3095238D01*
X20952382Y3047619D01*
X20666667Y3047619D01*
X20571429Y3095238D01*
X20523810Y3142857D01*
X21476191Y4047619D02*
X22142858Y4047619D01*
X21714286Y3047619D01*
X23000001Y4047619D02*
X22523810Y4047619D01*
X22476191Y3571429D01*
X22523810Y3619048D01*
X22619048Y3666667D01*
X22857144Y3666667D01*
X22952382Y3619048D01*
X23000001Y3571429D01*
X23047620Y3476190D01*
X23047620Y3238095D01*
X23000001Y3142857D01*
X22952382Y3095238D01*
X22857144Y3047619D01*
X22619048Y3047619D01*
X22523810Y3095238D01*
X22476191Y3142857D01*
D12*
X15500000Y4000000D02*
X15000000Y4500000D01*
X15000000Y3500000D02*
X15500000Y4000000D01*
X15000000Y4500000D02*
X15000000Y3500000D01*
X14000000Y4000000D02*
X15000000Y4000000D01*
D11*
X16000000Y4023810D02*
X16000000Y3547619D01*
X15666667Y4547619D02*
X16000000Y4023810D01*
X16333334Y4547619D01*
D12*
X13500000Y3000000D02*
X14000000Y2500000D01*
X14500000Y3000000D02*
X13500000Y3000000D01*
X14000000Y4000000D02*
X14000000Y3000000D01*
X14000000Y2500000D02*
X14500000Y3000000D01*
D11*
X13666667Y2047619D02*
X14333334Y1047619D01*
X14333334Y2047619D02*
X13666667Y1047619D01*
X35333334Y3047619D02*
X34857143Y3047619D01*
X34857143Y4047619D01*
X35619048Y3095238D02*
X35761905Y3047619D01*
X36000001Y3047619D01*
X36095239Y3095238D01*
X36142858Y3142857D01*
X36190477Y3238095D01*
X36190477Y3333333D01*
X36142858Y3428571D01*
X36095239Y3476190D01*
X36000001Y3523810D01*
X35809524Y3571429D01*
X35714286Y3619048D01*
X35666667Y3666667D01*
X35619048Y3761905D01*
X35619048Y3857143D01*
X35666667Y3952381D01*
X35714286Y4000000D01*
X35809524Y4047619D01*
X36047620Y4047619D01*
X36190477Y4000000D01*
X36619048Y3047619D02*
X36619048Y4047619D01*
X36952382Y3333333D01*
X37285715Y4047619D01*
X37285715Y3047619D01*
X37809524Y3047619D02*
X38000000Y3047619D01*
X38095239Y3095238D01*
X38142858Y3142857D01*
X38238096Y3285714D01*
X38285715Y3476190D01*
X38285715Y3857143D01*
X38238096Y3952381D01*
X38190477Y4000000D01*
X38095239Y4047619D01*
X37904762Y4047619D01*
X37809524Y4000000D01*
X37761905Y3952381D01*
X37714286Y3857143D01*
X37714286Y3619048D01*
X37761905Y3523810D01*
X37809524Y3476190D01*
X37904762Y3428571D01*
X38095239Y3428571D01*
X38190477Y3476190D01*
X38238096Y3523810D01*
X38285715Y3619048D01*
X38714286Y3047619D02*
X38714286Y4047619D01*
X38952381Y4047619D01*
X39095239Y4000000D01*
X39190477Y3904762D01*
X39238096Y3809524D01*
X39285715Y3619048D01*
X39285715Y3476190D01*
X39238096Y3285714D01*
X39190477Y3190476D01*
X39095239Y3095238D01*
X38952381Y3047619D01*
X38714286Y3047619D01*
X39666667Y3095238D02*
X39809524Y3047619D01*
X40047620Y3047619D01*
X40142858Y3095238D01*
X40190477Y3142857D01*
X40238096Y3238095D01*
X40238096Y3333333D01*
X40190477Y3428571D01*
X40142858Y3476190D01*
X40047620Y3523810D01*
X39857143Y3571429D01*
X39761905Y3619048D01*
X39714286Y3666667D01*
X39666667Y3761905D01*
X39666667Y3857143D01*
X39714286Y3952381D01*
X39761905Y4000000D01*
X39857143Y4047619D01*
X40095239Y4047619D01*
X40238096Y4000000D01*
X40857143Y4047619D02*
X40952382Y4047619D01*
X41047620Y4000000D01*
X41095239Y3952381D01*
X41142858Y3857143D01*
X41190477Y3666667D01*
X41190477Y3428571D01*
X41142858Y3238095D01*
X41095239Y3142857D01*
X41047620Y3095238D01*
X40952382Y3047619D01*
X40857143Y3047619D01*
X40761905Y3095238D01*
X40714286Y3142857D01*
X40666667Y3238095D01*
X40619048Y3428571D01*
X40619048Y3666667D01*
X40666667Y3857143D01*
X40714286Y3952381D01*
X40761905Y4000000D01*
X40857143Y4047619D01*
X33500000Y1523810D02*
X33500000Y1047619D01*
X33166667Y2047619D02*
X33500000Y1523810D01*
X33833334Y2047619D01*
X30666667Y4547619D02*
X31333334Y3547619D01*
X31333334Y4547619D02*
X30666667Y3547619D01*
D12*
X33000000Y3000000D02*
X33500000Y2500000D01*
X34000000Y3000000D02*
X33000000Y3000000D01*
X33500000Y2500000D02*
X34000000Y3000000D01*
X33500000Y4000000D02*
X33500000Y3000000D01*
X32500000Y3500000D02*
X32000000Y4000000D01*
X32500000Y4500000D02*
X32500000Y3500000D01*
X32000000Y4000000D02*
X32500000Y4500000D01*
X32500000Y4000000D02*
X33500000Y4000000D01*
X25000000Y14000000D02*
X25000000Y1000000D01*
X25000000Y35000000D02*
X25000000Y24000000D01*
X25000000Y49000000D02*
X25000000Y45000000D01*
D13*
X7921429Y41642857D02*
X9421429Y41642857D01*
X7921429Y40928571D02*
X9421429Y40928571D01*
X8350000Y40428571D01*
X9421429Y39928571D01*
X7921429Y39928571D01*
X9421429Y39214285D02*
X8207143Y39214285D01*
X8064286Y39142857D01*
X7992857Y39071428D01*
X7921429Y38928571D01*
X7921429Y38642857D01*
X7992857Y38499999D01*
X8064286Y38428571D01*
X8207143Y38357142D01*
X9421429Y38357142D01*
X8707143Y37142856D02*
X8635714Y36928570D01*
X8564286Y36857142D01*
X8421429Y36785713D01*
X8207143Y36785713D01*
X8064286Y36857142D01*
X7992857Y36928570D01*
X7921429Y37071428D01*
X7921429Y37642856D01*
X9421429Y37642856D01*
X9421429Y37142856D01*
X9350000Y36999999D01*
X9278571Y36928570D01*
X9135714Y36857142D01*
X8992857Y36857142D01*
X8850000Y36928570D01*
X8778571Y36999999D01*
X8707143Y37142856D01*
X8707143Y37642856D01*
X7921429Y35428570D02*
X7921429Y36142856D01*
X9421429Y36142856D01*
X8707143Y34928570D02*
X8707143Y34428570D01*
X7921429Y34214284D02*
X7921429Y34928570D01*
X9421429Y34928570D01*
X9421429Y34214284D01*
X7921429Y31571427D02*
X8635714Y32071427D01*
X7921429Y32428570D02*
X9421429Y32428570D01*
X9421429Y31857142D01*
X9350000Y31714284D01*
X9278571Y31642856D01*
X9135714Y31571427D01*
X8921429Y31571427D01*
X8778571Y31642856D01*
X8707143Y31714284D01*
X8635714Y31857142D01*
X8635714Y32428570D01*
X7992857Y30357142D02*
X7921429Y30499999D01*
X7921429Y30785713D01*
X7992857Y30928570D01*
X8135714Y30999999D01*
X8707143Y30999999D01*
X8850000Y30928570D01*
X8921429Y30785713D01*
X8921429Y30499999D01*
X8850000Y30357142D01*
X8707143Y30285713D01*
X8564286Y30285713D01*
X8421429Y30999999D01*
X8921429Y29785713D02*
X7921429Y29428570D01*
X8921429Y29071428D01*
X8064286Y28499999D02*
X7992857Y28428571D01*
X7921429Y28499999D01*
X7992857Y28571428D01*
X8064286Y28499999D01*
X7921429Y28499999D01*
X8350000Y27857142D02*
X8350000Y27142856D01*
X7921429Y27999999D02*
X9421429Y27499999D01*
X7921429Y26999999D01*
X6878571Y41714286D02*
X6950000Y41642857D01*
X7021429Y41500000D01*
X7021429Y41142857D01*
X6950000Y41000000D01*
X6878571Y40928571D01*
X6735714Y40857143D01*
X6592857Y40857143D01*
X6378571Y40928571D01*
X5521429Y41785714D01*
X5521429Y40857143D01*
X7021429Y39928572D02*
X7021429Y39785715D01*
X6950000Y39642858D01*
X6878571Y39571429D01*
X6735714Y39500000D01*
X6450000Y39428572D01*
X6092857Y39428572D01*
X5807143Y39500000D01*
X5664286Y39571429D01*
X5592857Y39642858D01*
X5521429Y39785715D01*
X5521429Y39928572D01*
X5592857Y40071429D01*
X5664286Y40142858D01*
X5807143Y40214286D01*
X6092857Y40285715D01*
X6450000Y40285715D01*
X6735714Y40214286D01*
X6878571Y40142858D01*
X6950000Y40071429D01*
X7021429Y39928572D01*
X5521429Y38000001D02*
X5521429Y38857144D01*
X5521429Y38428572D02*
X7021429Y38428572D01*
X6807143Y38571429D01*
X6664286Y38714287D01*
X6592857Y38857144D01*
X7021429Y36714287D02*
X7021429Y37000001D01*
X6950000Y37142858D01*
X6878571Y37214287D01*
X6664286Y37357144D01*
X6378571Y37428573D01*
X5807143Y37428573D01*
X5664286Y37357144D01*
X5592857Y37285716D01*
X5521429Y37142858D01*
X5521429Y36857144D01*
X5592857Y36714287D01*
X5664286Y36642858D01*
X5807143Y36571430D01*
X6164286Y36571430D01*
X6307143Y36642858D01*
X6378571Y36714287D01*
X6450000Y36857144D01*
X6450000Y37142858D01*
X6378571Y37285716D01*
X6307143Y37357144D01*
X6164286Y37428573D01*
X7092857Y34857145D02*
X5164286Y36142859D01*
X7021429Y34071430D02*
X7021429Y33928573D01*
X6950000Y33785716D01*
X6878571Y33714287D01*
X6735714Y33642858D01*
X6450000Y33571430D01*
X6092857Y33571430D01*
X5807143Y33642858D01*
X5664286Y33714287D01*
X5592857Y33785716D01*
X5521429Y33928573D01*
X5521429Y34071430D01*
X5592857Y34214287D01*
X5664286Y34285716D01*
X5807143Y34357144D01*
X6092857Y34428573D01*
X6450000Y34428573D01*
X6735714Y34357144D01*
X6878571Y34285716D01*
X6950000Y34214287D01*
X7021429Y34071430D01*
X7021429Y32214287D02*
X7021429Y32928573D01*
X6307143Y33000002D01*
X6378571Y32928573D01*
X6450000Y32785716D01*
X6450000Y32428573D01*
X6378571Y32285716D01*
X6307143Y32214287D01*
X6164286Y32142859D01*
X5807143Y32142859D01*
X5664286Y32214287D01*
X5592857Y32285716D01*
X5521429Y32428573D01*
X5521429Y32785716D01*
X5592857Y32928573D01*
X5664286Y33000002D01*
X7092857Y30428574D02*
X5164286Y31714288D01*
X7021429Y29642859D02*
X7021429Y29500002D01*
X6950000Y29357145D01*
X6878571Y29285716D01*
X6735714Y29214287D01*
X6450000Y29142859D01*
X6092857Y29142859D01*
X5807143Y29214287D01*
X5664286Y29285716D01*
X5592857Y29357145D01*
X5521429Y29500002D01*
X5521429Y29642859D01*
X5592857Y29785716D01*
X5664286Y29857145D01*
X5807143Y29928573D01*
X6092857Y30000002D01*
X6450000Y30000002D01*
X6735714Y29928573D01*
X6878571Y29857145D01*
X6950000Y29785716D01*
X7021429Y29642859D01*
X7021429Y28642859D02*
X7021429Y27714288D01*
X6450000Y28214288D01*
X6450000Y28000002D01*
X6378571Y27857145D01*
X6307143Y27785716D01*
X6164286Y27714288D01*
X5807143Y27714288D01*
X5664286Y27785716D01*
X5592857Y27857145D01*
X5521429Y28000002D01*
X5521429Y28428574D01*
X5592857Y28571431D01*
X5664286Y28642859D01*
X3835714Y40714286D02*
X3907143Y40785714D01*
X3978571Y40928571D01*
X3978571Y41071429D01*
X3907143Y41214286D01*
X3835714Y41285714D01*
X3692857Y41357143D01*
X3550000Y41357143D01*
X3407143Y41285714D01*
X3335714Y41214286D01*
X3264286Y41071429D01*
X3264286Y40928571D01*
X3335714Y40785714D01*
X3407143Y40714286D01*
X3978571Y40714286D02*
X3407143Y40714286D01*
X3335714Y40642857D01*
X3335714Y40571429D01*
X3407143Y40428571D01*
X3550000Y40357143D01*
X3907143Y40357143D01*
X4121429Y40500000D01*
X4264286Y40714286D01*
X4335714Y41000000D01*
X4264286Y41285714D01*
X4121429Y41500000D01*
X3907143Y41642857D01*
X3621429Y41714286D01*
X3335714Y41642857D01*
X3121429Y41500000D01*
X2978571Y41285714D01*
X2907143Y41000000D01*
X2978571Y40714286D01*
X3121429Y40500000D01*
X3192857Y39071429D02*
X3121429Y39214286D01*
X3121429Y39500000D01*
X3192857Y39642858D01*
X3264286Y39714286D01*
X3407143Y39785715D01*
X3835714Y39785715D01*
X3978571Y39714286D01*
X4050000Y39642858D01*
X4121429Y39500000D01*
X4121429Y39214286D01*
X4050000Y39071429D01*
X3121429Y38428572D02*
X4121429Y38428572D01*
X4621429Y38428572D02*
X4550000Y38500001D01*
X4478571Y38428572D01*
X4550000Y38357144D01*
X4621429Y38428572D01*
X4478571Y38428572D01*
X4121429Y37714286D02*
X3121429Y37714286D01*
X3978571Y37714286D02*
X4050000Y37642858D01*
X4121429Y37500000D01*
X4121429Y37285715D01*
X4050000Y37142858D01*
X3907143Y37071429D01*
X3121429Y37071429D01*
X3121429Y36357143D02*
X4121429Y36357143D01*
X4621429Y36357143D02*
X4550000Y36428572D01*
X4478571Y36357143D01*
X4550000Y36285715D01*
X4621429Y36357143D01*
X4478571Y36357143D01*
X3121429Y35642857D02*
X4121429Y35642857D01*
X3978571Y35642857D02*
X4050000Y35571429D01*
X4121429Y35428571D01*
X4121429Y35214286D01*
X4050000Y35071429D01*
X3907143Y35000000D01*
X3121429Y35000000D01*
X3907143Y35000000D02*
X4050000Y34928571D01*
X4121429Y34785714D01*
X4121429Y34571429D01*
X4050000Y34428571D01*
X3907143Y34357143D01*
X3121429Y34357143D01*
X3121429Y33428571D02*
X3192857Y33571429D01*
X3335714Y33642857D01*
X4621429Y33642857D01*
X2550000Y31285715D02*
X2621429Y31357143D01*
X2835714Y31500000D01*
X2978571Y31571429D01*
X3192857Y31642858D01*
X3550000Y31714286D01*
X3835714Y31714286D01*
X4192857Y31642858D01*
X4407143Y31571429D01*
X4550000Y31500000D01*
X4764286Y31357143D01*
X4835714Y31285715D01*
X3121429Y30714286D02*
X4621429Y30714286D01*
X3121429Y29857143D02*
X3978571Y30500000D01*
X4621429Y29857143D02*
X3764286Y30714286D01*
X3264286Y29214286D02*
X3192857Y29142858D01*
X3121429Y29214286D01*
X3192857Y29285715D01*
X3264286Y29214286D01*
X3121429Y29214286D01*
X3121429Y28500000D02*
X4621429Y28500000D01*
X3121429Y27785714D02*
X4621429Y27785714D01*
X4621429Y27428571D01*
X4550000Y27214286D01*
X4407143Y27071428D01*
X4264286Y27000000D01*
X3978571Y26928571D01*
X3764286Y26928571D01*
X3478571Y27000000D01*
X3335714Y27071428D01*
X3192857Y27214286D01*
X3121429Y27428571D01*
X3121429Y27785714D01*
X3550000Y26357143D02*
X3550000Y25642857D01*
X3121429Y26500000D02*
X4621429Y26000000D01*
X3121429Y25500000D01*
X2550000Y25142857D02*
X2621429Y25071429D01*
X2835714Y24928572D01*
X2978571Y24857143D01*
X3192857Y24785714D01*
X3550000Y24714286D01*
X3835714Y24714286D01*
X4192857Y24785714D01*
X4407143Y24857143D01*
X4550000Y24928572D01*
X4764286Y25071429D01*
X4835714Y25142857D01*
X3771428Y8892857D02*
X2628571Y8892857D01*
X3200000Y8321429D02*
X3200000Y9464286D01*
D14*
X10500000Y50000000D02*
X10500000Y7000000D01*
X39500000Y50000000D02*
X10500000Y50000000D01*
X39500000Y7000000D02*
X39500000Y50000000D01*
X10500000Y7000000D02*
X39500000Y7000000D01*
X30080000Y10490000D02*
X19920000Y10490000D01*
X30080000Y7950000D02*
X30080000Y10490000D01*
X19920000Y7950000D02*
X30080000Y7950000D01*
X19920000Y10490000D02*
X19920000Y7950000D01*
X11030000Y12395000D02*
X11030000Y44145000D01*
X18650000Y12395000D02*
X11030000Y12395000D01*
X18650000Y44145000D02*
X18650000Y12395000D01*
X11030000Y44145000D02*
X18650000Y44145000D01*
X31350000Y7315000D02*
X31350000Y44145000D01*
X38970000Y7315000D02*
X31350000Y7315000D01*
X38970000Y44145000D02*
X38970000Y7315000D01*
X31350000Y44145000D02*
X38970000Y44145000D01*
X46600000Y20750000D02*
X43900000Y20750000D01*
X46600000Y19250000D02*
X43900000Y19250000D01*
X45100000Y20150000D02*
X45100000Y19900000D01*
X45100000Y19900000D02*
X45250000Y20050000D01*
X45350000Y19650000D02*
X45350000Y20350000D01*
X45000000Y20000000D02*
X44650000Y20000000D01*
X45350000Y20000000D02*
X45000000Y19650000D01*
X45000000Y19650000D02*
X45000000Y20350000D01*
X45000000Y20350000D02*
X45350000Y20000000D01*
X46600000Y15750000D02*
X43900000Y15750000D01*
X46600000Y14250000D02*
X43900000Y14250000D01*
X45100000Y15150000D02*
X45100000Y14900000D01*
X45100000Y14900000D02*
X45250000Y15050000D01*
X45350000Y14650000D02*
X45350000Y15350000D01*
X45000000Y15000000D02*
X44650000Y15000000D01*
X45350000Y15000000D02*
X45000000Y14650000D01*
X45000000Y14650000D02*
X45000000Y15350000D01*
X45000000Y15350000D02*
X45350000Y15000000D01*
X32675000Y32500000D02*
X32675000Y31500000D01*
X31325000Y31500000D02*
X31325000Y32500000D01*
X32675000Y37500000D02*
X32675000Y36500000D01*
X31325000Y36500000D02*
X31325000Y37500000D01*
X44500000Y18675000D02*
X45500000Y18675000D01*
X45500000Y17325000D02*
X44500000Y17325000D01*
X44500000Y13675000D02*
X45500000Y13675000D01*
X45500000Y12325000D02*
X44500000Y12325000D01*
X43700000Y31200000D02*
X43800000Y31200000D01*
X43900000Y31300000D02*
X43600000Y31300000D01*
X43600000Y31400000D02*
X43900000Y31400000D01*
X44000000Y31500000D02*
X43500000Y31500000D01*
X43400000Y31600000D02*
X44100000Y31600000D01*
X44250000Y31750000D02*
X43750000Y31000000D01*
X43250000Y31750000D02*
X44250000Y31750000D01*
X43750000Y31000000D02*
X43250000Y31750000D01*
X47000000Y25000000D02*
X43000000Y25000000D01*
X47000000Y31000000D02*
X47000000Y25000000D01*
X43000000Y31000000D02*
X47000000Y31000000D01*
X43000000Y25000000D02*
X43000000Y31000000D01*
X2910000Y9700000D02*
X4460000Y9700000D01*
X2910000Y11000000D02*
X2910000Y9700000D01*
X4333000Y15191000D02*
X4333000Y21033000D01*
X4333000Y21033000D02*
X4587000Y21033000D01*
X4587000Y21033000D02*
X4587000Y15191000D01*
X4587000Y15191000D02*
X4460000Y15191000D01*
X4460000Y15191000D02*
X4460000Y21033000D01*
X4206000Y12524000D02*
X4206000Y12143000D01*
X4714000Y12524000D02*
X4714000Y12143000D01*
X6746000Y12524000D02*
X6746000Y12143000D01*
X7254000Y12524000D02*
X7254000Y12143000D01*
X3190000Y12524000D02*
X3190000Y15064000D01*
X5730000Y12524000D02*
X5730000Y15064000D01*
X5730000Y12524000D02*
X8270000Y12524000D01*
X8270000Y12524000D02*
X8270000Y15064000D01*
X6746000Y15064000D02*
X6746000Y21160000D01*
X6746000Y21160000D02*
X7254000Y21160000D01*
X7254000Y21160000D02*
X7254000Y15064000D01*
X8270000Y15064000D02*
X5730000Y15064000D01*
X5730000Y15064000D02*
X3190000Y15064000D01*
X4714000Y21160000D02*
X4714000Y15064000D01*
X4206000Y21160000D02*
X4714000Y21160000D01*
X4206000Y15064000D02*
X4206000Y21160000D01*
X5730000Y12524000D02*
X5730000Y15064000D01*
X3190000Y12524000D02*
X5730000Y12524000D01*
X19666000Y24333000D02*
X19666000Y24587000D01*
X19539000Y24587000D02*
X19539000Y24333000D01*
X19412000Y24206000D02*
X19412000Y24714000D01*
X19285000Y24714000D02*
X19285000Y24206000D01*
X19158000Y24079000D02*
X19158000Y24841000D01*
X19031000Y24841000D02*
X19031000Y24079000D01*
X18904000Y23952000D02*
X18904000Y24968000D01*
X18777000Y24968000D02*
X18777000Y23952000D01*
X27540000Y13030000D02*
X27540000Y25730000D01*
X22460000Y25730000D02*
X22460000Y13030000D01*
X19920000Y24460000D02*
X18650000Y25095000D01*
X18650000Y23825000D02*
X19920000Y24460000D01*
X18650000Y25095000D02*
X18650000Y23825000D01*
X30080000Y25730000D02*
X19920000Y25730000D01*
X30080000Y13030000D02*
X30080000Y25730000D01*
X19920000Y13030000D02*
X30080000Y13030000D01*
X19920000Y25730000D02*
X19920000Y13030000D01*
X19666000Y47193000D02*
X19666000Y47447000D01*
X19539000Y47447000D02*
X19539000Y47193000D01*
X19412000Y47066000D02*
X19412000Y47574000D01*
X19285000Y47574000D02*
X19285000Y47066000D01*
X19158000Y46939000D02*
X19158000Y47701000D01*
X19031000Y47701000D02*
X19031000Y46939000D01*
X18904000Y46812000D02*
X18904000Y47828000D01*
X18777000Y47828000D02*
X18777000Y46812000D01*
X27540000Y30810000D02*
X27540000Y48590000D01*
X22460000Y48590000D02*
X22460000Y30810000D01*
X19920000Y47320000D02*
X18650000Y47955000D01*
X18650000Y46685000D02*
X19920000Y47320000D01*
X18650000Y47955000D02*
X18650000Y46685000D01*
X30080000Y48590000D02*
X19920000Y48590000D01*
X30080000Y30810000D02*
X30080000Y48590000D01*
X19920000Y30810000D02*
X30080000Y30810000D01*
X19920000Y48590000D02*
X19920000Y30810000D01*
X11238095Y6347619D02*
X11238095Y5538095D01*
X11285714Y5442857D01*
X11333333Y5395238D01*
X11428571Y5347619D01*
X11619048Y5347619D01*
X11714286Y5395238D01*
X11761905Y5442857D01*
X11809524Y5538095D01*
X11809524Y6347619D01*
X12714286Y6014286D02*
X12714286Y5347619D01*
X12476190Y6395238D02*
X12238095Y5680952D01*
X12857143Y5680952D01*
X41261905Y19547619D02*
X41261905Y20547619D01*
X41500000Y20547619D01*
X41642858Y20500000D01*
X41738096Y20404762D01*
X41785715Y20309524D01*
X41833334Y20119048D01*
X41833334Y19976190D01*
X41785715Y19785714D01*
X41738096Y19690476D01*
X41642858Y19595238D01*
X41500000Y19547619D01*
X41261905Y19547619D01*
X42785715Y19547619D02*
X42214286Y19547619D01*
X42500000Y19547619D02*
X42500000Y20547619D01*
X42404762Y20404762D01*
X42309524Y20309524D01*
X42214286Y20261905D01*
X41261905Y14547619D02*
X41261905Y15547619D01*
X41500000Y15547619D01*
X41642858Y15500000D01*
X41738096Y15404762D01*
X41785715Y15309524D01*
X41833334Y15119048D01*
X41833334Y14976190D01*
X41785715Y14785714D01*
X41738096Y14690476D01*
X41642858Y14595238D01*
X41500000Y14547619D01*
X41261905Y14547619D01*
X42214286Y15452381D02*
X42261905Y15500000D01*
X42357143Y15547619D01*
X42595239Y15547619D01*
X42690477Y15500000D01*
X42738096Y15452381D01*
X42785715Y15357143D01*
X42785715Y15261905D01*
X42738096Y15119048D01*
X42166667Y14547619D01*
X42785715Y14547619D01*
X31052381Y29233334D02*
X30576190Y28900000D01*
X31052381Y28661905D02*
X30052381Y28661905D01*
X30052381Y29042858D01*
X30100000Y29138096D01*
X30147619Y29185715D01*
X30242857Y29233334D01*
X30385714Y29233334D01*
X30480952Y29185715D01*
X30528571Y29138096D01*
X30576190Y29042858D01*
X30576190Y28661905D01*
X30052381Y29566667D02*
X30052381Y30185715D01*
X30433333Y29852381D01*
X30433333Y29995239D01*
X30480952Y30090477D01*
X30528571Y30138096D01*
X30623810Y30185715D01*
X30861905Y30185715D01*
X30957143Y30138096D01*
X31004762Y30090477D01*
X31052381Y29995239D01*
X31052381Y29709524D01*
X31004762Y29614286D01*
X30957143Y29566667D01*
X32652381Y40233334D02*
X32176190Y39900000D01*
X32652381Y39661905D02*
X31652381Y39661905D01*
X31652381Y40042858D01*
X31700000Y40138096D01*
X31747619Y40185715D01*
X31842857Y40233334D01*
X31985714Y40233334D01*
X32080952Y40185715D01*
X32128571Y40138096D01*
X32176190Y40042858D01*
X32176190Y39661905D01*
X31985714Y41090477D02*
X32652381Y41090477D01*
X31604762Y40852381D02*
X32319048Y40614286D01*
X32319048Y41233334D01*
X41833334Y17547619D02*
X41500000Y18023810D01*
X41261905Y17547619D02*
X41261905Y18547619D01*
X41642858Y18547619D01*
X41738096Y18500000D01*
X41785715Y18452381D01*
X41833334Y18357143D01*
X41833334Y18214286D01*
X41785715Y18119048D01*
X41738096Y18071429D01*
X41642858Y18023810D01*
X41261905Y18023810D01*
X42690477Y18547619D02*
X42500000Y18547619D01*
X42404762Y18500000D01*
X42357143Y18452381D01*
X42261905Y18309524D01*
X42214286Y18119048D01*
X42214286Y17738095D01*
X42261905Y17642857D01*
X42309524Y17595238D01*
X42404762Y17547619D01*
X42595239Y17547619D01*
X42690477Y17595238D01*
X42738096Y17642857D01*
X42785715Y17738095D01*
X42785715Y17976190D01*
X42738096Y18071429D01*
X42690477Y18119048D01*
X42595239Y18166667D01*
X42404762Y18166667D01*
X42309524Y18119048D01*
X42261905Y18071429D01*
X42214286Y17976190D01*
X41833334Y12547619D02*
X41500000Y13023810D01*
X41261905Y12547619D02*
X41261905Y13547619D01*
X41642858Y13547619D01*
X41738096Y13500000D01*
X41785715Y13452381D01*
X41833334Y13357143D01*
X41833334Y13214286D01*
X41785715Y13119048D01*
X41738096Y13071429D01*
X41642858Y13023810D01*
X41261905Y13023810D01*
X42166667Y13547619D02*
X42833334Y13547619D01*
X42404762Y12547619D01*
X42404762Y25066667D02*
X42452381Y25209524D01*
X42452381Y25447620D01*
X42404762Y25542858D01*
X42357143Y25590477D01*
X42261905Y25638096D01*
X42166667Y25638096D01*
X42071429Y25590477D01*
X42023810Y25542858D01*
X41976190Y25447620D01*
X41928571Y25257143D01*
X41880952Y25161905D01*
X41833333Y25114286D01*
X41738095Y25066667D01*
X41642857Y25066667D01*
X41547619Y25114286D01*
X41500000Y25161905D01*
X41452381Y25257143D01*
X41452381Y25495239D01*
X41500000Y25638096D01*
X41452381Y25971429D02*
X42452381Y26209524D01*
X41738095Y26400001D01*
X42452381Y26590477D01*
X41452381Y26828572D01*
X42452381Y27733334D02*
X42452381Y27161905D01*
X42452381Y27447619D02*
X41452381Y27447619D01*
X41595238Y27352381D01*
X41690476Y27257143D01*
X41738095Y27161905D01*
X7814286Y9071429D02*
X7957143Y9023810D01*
X8004762Y8976190D01*
X8052381Y8880952D01*
X8052381Y8738095D01*
X8004762Y8642857D01*
X7957143Y8595238D01*
X7861905Y8547619D01*
X7480952Y8547619D01*
X7480952Y9547619D01*
X7814286Y9547619D01*
X7909524Y9500000D01*
X7957143Y9452381D01*
X8004762Y9357143D01*
X8004762Y9261905D01*
X7957143Y9166667D01*
X7909524Y9119048D01*
X7814286Y9071429D01*
X7480952Y9071429D01*
X8338095Y9547619D02*
X8909524Y9547619D01*
X8623809Y8547619D02*
X8623809Y9547619D01*
X9766667Y8547619D02*
X9195238Y8547619D01*
X9480952Y8547619D02*
X9480952Y9547619D01*
X9385714Y9404762D01*
X9290476Y9309524D01*
X9195238Y9261905D01*
X21698095Y27547619D02*
X21698095Y26738095D01*
X21745714Y26642857D01*
X21793333Y26595238D01*
X21888571Y26547619D01*
X22079048Y26547619D01*
X22174286Y26595238D01*
X22221905Y26642857D01*
X22269524Y26738095D01*
X22269524Y27547619D01*
X23269524Y26547619D02*
X22698095Y26547619D01*
X22983809Y26547619D02*
X22983809Y27547619D01*
X22888571Y27404762D01*
X22793333Y27309524D01*
X22698095Y27261905D01*
X21698095Y50407619D02*
X21698095Y49598095D01*
X21745714Y49502857D01*
X21793333Y49455238D01*
X21888571Y49407619D01*
X22079048Y49407619D01*
X22174286Y49455238D01*
X22221905Y49502857D01*
X22269524Y49598095D01*
X22269524Y50407619D01*
X22650476Y50407619D02*
X23269524Y50407619D01*
X22936190Y50026667D01*
X23079048Y50026667D01*
X23174286Y49979048D01*
X23221905Y49931429D01*
X23269524Y49836190D01*
X23269524Y49598095D01*
X23221905Y49502857D01*
X23174286Y49455238D01*
X23079048Y49407619D01*
X22793333Y49407619D01*
X22698095Y49455238D01*
X22650476Y49502857D01*
M02*
