G04 #@! TF.FileFunction,Legend,Bot*
%FSLAX46Y46*%
G04 Gerber Fmt 4.6, Leading zero omitted, Abs format (unit mm)*
G04 Created by KiCad (PCBNEW 4.0.0-rc1-stable) date 2016/05/03 6:10:00*
%MOMM*%
G01*
G04 APERTURE LIST*
%ADD10C,0.100000*%
%ADD11C,0.200000*%
%ADD12C,0.150000*%
G04 APERTURE END LIST*
D10*
D11*
X41510000Y19380000D02*
X47860000Y19380000D01*
X22460000Y19380000D02*
X27540000Y19380000D01*
X870000Y39700000D02*
X49130000Y39700000D01*
X25000000Y50000000D02*
X25000000Y0D01*
D12*
X3600000Y15650000D02*
X3600000Y16350000D01*
X2400000Y16350000D02*
X2400000Y15650000D01*
X2400000Y20350000D02*
X2400000Y19650000D01*
X3600000Y19650000D02*
X3600000Y20350000D01*
X10400000Y21350000D02*
X10400000Y20650000D01*
X11600000Y20650000D02*
X11600000Y21350000D01*
X6350000Y22600000D02*
X5650000Y22600000D01*
X5650000Y21400000D02*
X6350000Y21400000D01*
X9675000Y20500000D02*
X9675000Y21500000D01*
X8325000Y21500000D02*
X8325000Y20500000D01*
X9675000Y16500000D02*
X9675000Y17500000D01*
X8325000Y17500000D02*
X8325000Y16500000D01*
X39325000Y18500000D02*
X39325000Y17500000D01*
X40675000Y17500000D02*
X40675000Y18500000D01*
X5700000Y17300000D02*
G75*
G03X5700000Y17300000I-100000J0D01*
G01*
X6250000Y17550000D02*
X5750000Y17550000D01*
X6250000Y20450000D02*
X6250000Y17550000D01*
X5750000Y20450000D02*
X6250000Y20450000D01*
X5750000Y17550000D02*
X5750000Y20450000D01*
X1757143Y16166666D02*
X1804762Y16214285D01*
X1852381Y16357142D01*
X1852381Y16452380D01*
X1804762Y16595238D01*
X1709524Y16690476D01*
X1614286Y16738095D01*
X1423810Y16785714D01*
X1280952Y16785714D01*
X1090476Y16738095D01*
X995238Y16690476D01*
X900000Y16595238D01*
X852381Y16452380D01*
X852381Y16357142D01*
X900000Y16214285D01*
X947619Y16166666D01*
X1852381Y15214285D02*
X1852381Y15785714D01*
X1852381Y15500000D02*
X852381Y15500000D01*
X995238Y15595238D01*
X1090476Y15690476D01*
X1138095Y15785714D01*
X1757143Y20166666D02*
X1804762Y20214285D01*
X1852381Y20357142D01*
X1852381Y20452380D01*
X1804762Y20595238D01*
X1709524Y20690476D01*
X1614286Y20738095D01*
X1423810Y20785714D01*
X1280952Y20785714D01*
X1090476Y20738095D01*
X995238Y20690476D01*
X900000Y20595238D01*
X852381Y20452380D01*
X852381Y20357142D01*
X900000Y20214285D01*
X947619Y20166666D01*
X947619Y19785714D02*
X900000Y19738095D01*
X852381Y19642857D01*
X852381Y19404761D01*
X900000Y19309523D01*
X947619Y19261904D01*
X1042857Y19214285D01*
X1138095Y19214285D01*
X1280952Y19261904D01*
X1852381Y19833333D01*
X1852381Y19214285D01*
X11357143Y17966666D02*
X11404762Y18014285D01*
X11452381Y18157142D01*
X11452381Y18252380D01*
X11404762Y18395238D01*
X11309524Y18490476D01*
X11214286Y18538095D01*
X11023810Y18585714D01*
X10880952Y18585714D01*
X10690476Y18538095D01*
X10595238Y18490476D01*
X10500000Y18395238D01*
X10452381Y18252380D01*
X10452381Y18157142D01*
X10500000Y18014285D01*
X10547619Y17966666D01*
X10452381Y17633333D02*
X10452381Y17014285D01*
X10833333Y17347619D01*
X10833333Y17204761D01*
X10880952Y17109523D01*
X10928571Y17061904D01*
X11023810Y17014285D01*
X11261905Y17014285D01*
X11357143Y17061904D01*
X11404762Y17109523D01*
X11452381Y17204761D01*
X11452381Y17490476D01*
X11404762Y17585714D01*
X11357143Y17633333D01*
X6166666Y23542857D02*
X6214285Y23495238D01*
X6357142Y23447619D01*
X6452380Y23447619D01*
X6595238Y23495238D01*
X6690476Y23590476D01*
X6738095Y23685714D01*
X6785714Y23876190D01*
X6785714Y24019048D01*
X6738095Y24209524D01*
X6690476Y24304762D01*
X6595238Y24400000D01*
X6452380Y24447619D01*
X6357142Y24447619D01*
X6214285Y24400000D01*
X6166666Y24352381D01*
X5309523Y24114286D02*
X5309523Y23447619D01*
X5547619Y24495238D02*
X5785714Y23780952D01*
X5166666Y23780952D01*
X9452381Y24166666D02*
X8976190Y24500000D01*
X9452381Y24738095D02*
X8452381Y24738095D01*
X8452381Y24357142D01*
X8500000Y24261904D01*
X8547619Y24214285D01*
X8642857Y24166666D01*
X8785714Y24166666D01*
X8880952Y24214285D01*
X8928571Y24261904D01*
X8976190Y24357142D01*
X8976190Y24738095D01*
X9452381Y23214285D02*
X9452381Y23785714D01*
X9452381Y23500000D02*
X8452381Y23500000D01*
X8595238Y23595238D01*
X8690476Y23690476D01*
X8738095Y23785714D01*
X9452381Y13966666D02*
X8976190Y14300000D01*
X9452381Y14538095D02*
X8452381Y14538095D01*
X8452381Y14157142D01*
X8500000Y14061904D01*
X8547619Y14014285D01*
X8642857Y13966666D01*
X8785714Y13966666D01*
X8880952Y14014285D01*
X8928571Y14061904D01*
X8976190Y14157142D01*
X8976190Y14538095D01*
X8547619Y13585714D02*
X8500000Y13538095D01*
X8452381Y13442857D01*
X8452381Y13204761D01*
X8500000Y13109523D01*
X8547619Y13061904D01*
X8642857Y13014285D01*
X8738095Y13014285D01*
X8880952Y13061904D01*
X9452381Y13633333D01*
X9452381Y13014285D01*
X40452381Y21366666D02*
X39976190Y21700000D01*
X40452381Y21938095D02*
X39452381Y21938095D01*
X39452381Y21557142D01*
X39500000Y21461904D01*
X39547619Y21414285D01*
X39642857Y21366666D01*
X39785714Y21366666D01*
X39880952Y21414285D01*
X39928571Y21461904D01*
X39976190Y21557142D01*
X39976190Y21938095D01*
X39452381Y20461904D02*
X39452381Y20938095D01*
X39928571Y20985714D01*
X39880952Y20938095D01*
X39833333Y20842857D01*
X39833333Y20604761D01*
X39880952Y20509523D01*
X39928571Y20461904D01*
X40023810Y20414285D01*
X40261905Y20414285D01*
X40357143Y20461904D01*
X40404762Y20509523D01*
X40452381Y20604761D01*
X40452381Y20842857D01*
X40404762Y20938095D01*
X40357143Y20985714D01*
X6361905Y16947619D02*
X6361905Y16138095D01*
X6314286Y16042857D01*
X6266667Y15995238D01*
X6171429Y15947619D01*
X5980952Y15947619D01*
X5885714Y15995238D01*
X5838095Y16042857D01*
X5790476Y16138095D01*
X5790476Y16947619D01*
X5361905Y16852381D02*
X5314286Y16900000D01*
X5219048Y16947619D01*
X4980952Y16947619D01*
X4885714Y16900000D01*
X4838095Y16852381D01*
X4790476Y16757143D01*
X4790476Y16661905D01*
X4838095Y16519048D01*
X5409524Y15947619D01*
X4790476Y15947619D01*
M02*
